<svg width="35" height="35" fill="none" xmlns="http://www.w3.org/2000/svg"><path fill-rule="evenodd" clip-rule="evenodd" d="M0 0h35v35H0V0z" fill="#fff"/><path fill-rule="evenodd" clip-rule="evenodd" d="M33 22.08c0 .777-.49 1.139-1.368 1.139h-1.678v-.777h1.678c.155 0 .284-.026.336-.077a.33.33 0 00.103-.233.394.394 0 00-.103-.259c-.052-.052-.155-.078-.31-.078-.8-.026-1.807.026-1.807-1.112 0-.518.336-1.087 1.239-1.087h1.73v.776h-1.601c-.155 0-.258 0-.336.052a.37.37 0 00-.128.285c0 .129.077.207.18.259.104.025.207.051.336.051h.464c.49 0 .8.104 1.007.285.155.18.258.414.258.776zm-3.64-.776c-.206-.181-.516-.285-1.006-.285h-.465c-.129 0-.232-.026-.335-.051-.104-.052-.18-.13-.18-.26 0-.129.025-.207.128-.284.078-.052.18-.052.336-.052h1.6v-.776h-1.73c-.929 0-1.238.57-1.238 1.087 0 1.138 1.006 1.087 1.807 1.113.154 0 .258.025.31.077a.396.396 0 01.103.259.33.33 0 01-.104.233c-.077.051-.18.077-.335.077h-1.678v.776h1.678c.877 0 1.367-.361 1.367-1.138 0-.362-.102-.595-.258-.776zm-3.303 1.164h-2.04v-.724h1.988v-.724h-1.987v-.674h2.038v-.75h-2.89v3.623h2.89v-.75zm-3.82-2.69c-.284-.156-.62-.182-1.059-.182h-1.987v3.622h.877v-1.32h.93c.31 0 .49.027.62.156.154.181.154.492.154.725v.44h.852v-.7c0-.335-.026-.49-.13-.672a1.007 1.007 0 00-.438-.31c.232-.078.62-.388.62-.958 0-.414-.155-.647-.44-.802zm-4.905-.182H14.57l-1.11 1.19-1.058-1.19H8.918v3.622h3.433l1.11-1.19 1.058 1.19h1.678v-1.215h1.084c.748 0 1.497-.207 1.497-1.217 0-.983-.774-1.19-1.446-1.19zm4.207 1.501c-.128.052-.258.052-.412.052l-1.059.026v-.829h1.059c.155 0 .31 0 .413.078a.33.33 0 01.18.31.452.452 0 01-.18.363zm-4.207.181h-1.135v-.932h1.135c.31 0 .517.13.517.44 0 .311-.207.492-.517.492zm-3.33.13l1.343-1.424v2.924l-1.343-1.5zm-2.09 1.06H9.769v-.724h1.91v-.724H9.77v-.674h2.169l.955 1.061-.981 1.061zm18.687-5.485H29.36l-1.626-2.718v2.718H25.98l-.335-.803h-1.807l-.336.803h-1.007c-.412 0-.954-.104-1.264-.415-.284-.31-.439-.724-.439-1.371 0-.543.078-1.035.465-1.423.258-.285.722-.414 1.316-.414h.826v.776h-.826c-.31 0-.49.052-.671.207-.155.156-.233.44-.233.828 0 .388.078.673.233.854.129.13.361.181.593.181h.388l1.238-2.846h1.291l1.446 3.416V13.36h1.342l1.523 2.51v-2.51h.877v3.623zM20.352 13.36h-.877v3.623h.877V13.36zm-1.832.155c-.285-.155-.594-.155-1.033-.155H15.5v3.623h.851v-1.32h.93c.31 0 .516.026.645.155.155.181.129.492.129.699v.466h.877v-.725c0-.31-.025-.466-.154-.647a1.08 1.08 0 00-.413-.31c.232-.104.62-.389.62-.958 0-.414-.182-.647-.465-.828zm-3.64 2.717h-2.013v-.724h1.987v-.75h-1.987v-.648h2.013v-.75h-2.89v3.623h2.89v-.75zm-3.536-2.872h-1.42l-1.058 2.458L7.73 13.36H6.336v3.415l-1.47-3.415H3.574l-1.549 3.623h.93l.335-.803h1.806l.336.803h1.755v-2.847l1.265 2.847H9.2l1.265-2.847v2.847h.878V13.36zm13.99 2.044l-.594-1.423-.593 1.423h1.187zm-7.485-.57c-.13.079-.258.079-.44.079h-1.058v-.803h1.059c.155 0 .335 0 .438.052.104.078.155.181.155.337 0 .155-.051.284-.154.336zm-14.249.57l.594-1.423.594 1.423H3.6zM33 2H2v13.042l1.058-2.407h2.246l.31.595v-.595h2.632l.594 1.294.568-1.294h8.389c.387 0 .722.078.98.285v-.285h2.298v.285c.387-.207.877-.285 1.445-.285h3.33l.31.595v-.595h2.452l.361.595v-.595h2.4v5.072h-2.425l-.465-.776v.776h-3.02l-.335-.828h-.75l-.335.828H22.47c-.62 0-1.084-.155-1.394-.31v.31h-3.743v-1.164c0-.156-.026-.182-.129-.182h-.129v1.346H9.847v-.647l-.258.647H8.066l-.258-.621v.62H4.89l-.31-.827h-.748l-.336.828H2V33h31v-9.29c-.336.155-1.007.233-1.471.233h-2.246v-.31c-.258.207-.723.31-1.161.31h-7.073V22.78c0-.155-.026-.155-.155-.155h-.129v1.32h-2.323v-1.372c-.387.18-.826.18-1.213.18h-.258v1.191h-2.84l-.67-.776-.749.776H8.143v-5.071h4.646l.671.776.723-.776h3.123c.362 0 .956.051 1.214.31v-.31h2.787c.284 0 .826.051 1.188.31v-.31h4.207v.31c.232-.207.671-.31 1.058-.31h2.349v.31c.258-.181.62-.31 1.084-.31H33V2z" fill="#0077A6"/></svg>