<svg width="248" height="30" fill="none" xmlns="http://www.w3.org/2000/svg"><g opacity=".6" fill="#fff"><rect width="46" height="3" rx="1.5"/><rect y="9" width="20" height="3" rx="1.5"/><rect y="18" width="36" height="3" rx="1.5"/><rect y="27" width="64" height="3" rx="1.5"/><rect x="69" y="27" width="30" height="3" rx="1.5"/><rect x="104" y="27" width="17" height="3" rx="1.5"/><rect x="126" y="27" width="29" height="3" rx="1.5"/><rect x="160" y="27" width="19" height="3" rx="1.5"/><rect x="184" y="27" width="5" height="3" rx="1.5"/><rect x="194" y="27" width="26" height="3" rx="1.5"/><rect x="225" y="27" width="23" height="3" rx="1.5"/><rect x="41" y="18" width="8" height="3" rx="1.5"/><rect x="54" y="18" width="29" height="3" rx="1.5"/><rect x="88" y="18" width="16" height="3" rx="1.5"/><rect x="109" y="18" width="10" height="3" rx="1.5"/><rect x="124" y="18" width="46" height="3" rx="1.5"/><rect x="175" y="18" width="20" height="3" rx="1.5"/><rect x="200" y="18" width="20" height="3" rx="1.5"/><rect x="225" y="18" width="23" height="3" rx="1.5"/><rect x="25" y="9" width="32" height="3" rx="1.5"/><rect x="62" y="9" width="18" height="3" rx="1.5"/><rect x="85" y="9" width="31" height="3" rx="1.5"/><rect x="121" y="9" width="7" height="3" rx="1.5"/><rect x="133" y="9" width="15" height="3" rx="1.5"/><rect x="153" y="9" width="37" height="3" rx="1.5"/><rect x="195" y="9" width="14" height="3" rx="1.5"/><rect x="214" y="9" width="34" height="3" rx="1.5"/><rect x="51" width="24" height="3" rx="1.5"/><rect x="80" width="7" height="3" rx="1.5"/></g></svg>