<svg width="59" height="35" viewBox="0 0 59 35" fill="none" xmlns="http://www.w3.org/2000/svg">
<path d="M17.8816 0.391774C8.30248 0.391774 0.519409 8.06368 0.519409 17.494C0.519409 26.9243 8.30248 34.6082 17.8816 34.6082H41.2553C50.8223 34.6082 58.6175 26.9363 58.6175 17.494C58.6175 8.06368 50.8345 0.37973 41.2553 0.37973H17.8816V0.391774Z" fill="white"/>
<path d="M41.2553 34.9575H17.8816C8.11917 34.9575 0.165039 27.129 0.165039 17.494C0.165039 7.87097 8.10695 0.0424957 17.8816 0.0424957H41.2553C51.0177 0.0424957 58.9596 7.87097 58.9596 17.494C58.9596 27.129 51.0177 34.9575 41.2553 34.9575ZM17.8816 0.391766C8.30244 0.391766 0.519371 8.06367 0.519371 17.494C0.519371 26.9243 8.30244 34.6082 17.8816 34.6082H41.2553C50.8222 34.6082 58.6175 26.9363 58.6175 17.494C58.6175 8.06367 50.8344 0.379722 41.2553 0.379722H17.8816V0.391766Z" fill="white"/>
<path d="M45.3362 16.4582L53.107 25.5754C54.7199 23.2871 55.6607 20.5049 55.6607 17.506C55.6607 14.3505 54.6099 11.4239 52.826 9.06331L45.3362 16.4582Z" fill="#E31F28"/>
<path d="M23.3065 8.28047C29.1102 8.28047 33.4844 9.73777 33.9365 14.5553L40.0456 8.28047H52.2151C49.5637 5.22134 45.6416 3.28229 41.2552 3.28229H17.8816C13.4952 3.28229 9.56091 5.22134 6.92175 8.28047H23.3065V8.28047Z" fill="#E31F28"/>
<path d="M13.7519 14.3626L11.6748 19.975H20.0444C22.5125 19.975 23.27 18.9633 23.8198 17.0243C24.3696 15.0973 22.989 14.3626 21.3028 14.3626H13.7519Z" fill="#E31F28"/>
<path d="M40.1068 26.3341L33.6433 18.2889C32.4459 23.7808 28.536 26.3341 21.205 26.3341H6.59192C9.23108 29.61 13.312 31.7057 17.8817 31.7057H41.2553C45.825 31.7057 49.8937 29.598 52.5328 26.3341H40.1068Z" fill="#E31F28"/>
</svg>
