<svg width="115" height="29" fill="none" xmlns="http://www.w3.org/2000/svg"><path fill-rule="evenodd" clip-rule="evenodd" d="M33.47 14.626c0 7.91-7.434 14.412-15.578 14.374h-2.866C6.784 29.038 0 22.538 0 14.626 0 5.978 6.784-.003 15.026 0h2.866C26.035-.003 33.47 5.976 33.47 14.626zm-32.047-.152C1.425 7.142 7.528 1.201 15.06 1.2c7.534.002 13.638 5.943 13.639 13.275-.001 7.331-6.105 13.271-13.639 13.274-7.531-.003-13.634-5.943-13.636-13.274zm10.542-7.852c-3.243 1.214-5.542 4.27-5.55 7.852.008 3.584 2.307 6.637 5.55 7.85V6.623zm6.188 0v15.706c3.244-1.213 5.547-4.268 5.553-7.854-.006-3.585-2.31-6.642-5.553-7.853z" fill="#fff"/><path d="M42.39 6.239c0-1.372-.734-1.281-1.44-1.296v-.397c.611.03 1.238.03 1.85.03.658 0 1.551-.03 2.711-.03 4.057 0 6.267 2.638 6.267 5.339 0 1.51-.908 5.307-6.456 5.307-.798 0-1.536-.03-2.272-.03-.704 0-1.394.015-2.1.03v-.396c.94-.092 1.395-.122 1.44-1.16V6.24zm1.537 7.154c0 1.174.862 1.311 1.63 1.311 3.385 0 4.497-2.486 4.497-4.759 0-2.851-1.881-4.91-4.905-4.91-.643 0-.938.045-1.222.061v8.297zM52.328 14.796h.297c.438 0 .752 0 .752-.504v-4.133c0-.67-.235-.763-.815-1.067v-.244c.736-.215 1.615-.503 1.676-.549a.569.569 0 01.283-.077c.077 0 .11.092.11.214v5.856c0 .504.344.504.783.504h.266v.397c-.533 0-1.082-.03-1.645-.03-.564 0-1.128.014-1.707.03v-.397zm1.676-8.922a.792.792 0 01-.767-.763c0-.382.376-.733.767-.733.406 0 .768.321.768.733a.772.772 0 01-.768.763zM57.169 10.25c0-.564-.173-.716-.908-1.006v-.289c.673-.214 1.315-.412 2.067-.733.047 0 .093.031.093.152v.992c.895-.625 1.663-1.144 2.714-1.144 1.33 0 1.8.946 1.8 2.135v3.935c0 .504.345.504.784.504h.283v.397c-.55 0-1.098-.03-1.661-.03-.565 0-1.13.014-1.693.03v-.397h.281c.44 0 .752 0 .752-.504v-3.95c0-.87-.546-1.296-1.44-1.296-.501 0-1.3.396-1.82.732v4.514c0 .504.347.504.786.504h.282v.397c-.549 0-1.098-.03-1.662-.03-.563 0-1.129.014-1.692.03v-.397h.282c.44 0 .752 0 .752-.504V10.25zM65.193 10.983c-.033.138-.033.366 0 .885.092 1.448 1.05 2.638 2.302 2.638.863 0 1.538-.458 2.117-1.022l.219.214c-.722.93-1.615 1.723-2.899 1.723-2.492 0-2.993-2.35-2.993-3.324 0-2.99 2.068-3.875 3.164-3.875 1.27 0 2.634.777 2.649 2.394 0 .093 0 .183-.015.276l-.142.091h-4.402zm2.774-.488c.39 0 .437-.199.437-.381 0-.778-.485-1.404-1.363-1.404-.955 0-1.613.686-1.801 1.785h2.727zM70.113 14.796h.423c.438 0 .751 0 .751-.504v-4.285c0-.473-.579-.565-.815-.687v-.228c1.144-.473 1.772-.87 1.914-.87.093 0 .14.046.14.199v1.372h.032c.391-.594 1.05-1.571 2.005-1.571.392 0 .893.259.893.808 0 .412-.297.78-.736.78-.487 0-.487-.368-1.035-.368-.266 0-1.143.351-1.143 1.267v3.583c0 .504.313.504.752.504h.877v.397c-.863-.016-1.518-.03-2.193-.03-.642 0-1.301.014-1.865.03v-.397zM76.146 13.072c.204 1.007.83 1.861 1.975 1.861.922 0 1.267-.549 1.267-1.083 0-1.8-3.415-1.22-3.415-3.675 0-.855.706-1.953 2.429-1.953.5 0 1.174.138 1.785.443l.111 1.555h-.361c-.156-.96-.704-1.51-1.708-1.51-.627 0-1.222.351-1.222 1.007 0 1.786 3.635 1.235 3.635 3.63 0 1.006-.83 2.074-2.695 2.074-.627 0-1.363-.213-1.911-.518l-.173-1.754.283-.077zM94.792 7.307h-.39c-.299-1.784-1.6-2.501-3.354-2.501-1.803 0-4.42 1.173-4.42 4.834 0 3.082 2.258 5.293 4.67 5.293 1.551 0 2.837-1.037 3.15-2.639l.36.091-.36 2.227c-.658.398-2.428.81-3.464.81-3.665 0-5.984-2.304-5.984-5.736 0-3.127 2.867-5.37 5.938-5.37 1.269 0 2.491.399 3.698.81l.156 2.18zM95.357 14.796h.297c.44 0 .754 0 .754-.504V5.798c0-.992-.235-1.023-.831-1.19v-.244c.626-.198 1.284-.473 1.614-.657.17-.09.297-.168.343-.168.096 0 .127.092.127.215v10.538c0 .504.344.504.784.504h.264v.397c-.53 0-1.079-.03-1.644-.03-.563 0-1.127.014-1.708.03v-.397zM105.419 14.353c0 .275.171.29.437.29.189 0 .423-.015.627-.015v.321c-.674.06-1.959.381-2.257.472l-.079-.046v-1.234c-.939.747-1.661 1.28-2.774 1.28-.846 0-1.723-.533-1.723-1.813V9.701c0-.397-.063-.778-.939-.854v-.29c.565-.015 1.816-.107 2.021-.107.174 0 .174.107.174.442v3.934c0 .459 0 1.77 1.362 1.77.532 0 1.237-.396 1.895-.929V9.564c0-.304-.752-.472-1.315-.625v-.274c1.409-.092 2.288-.214 2.443-.214.127 0 .127.107.127.275v5.627h.001zM108.536 9.32c.627-.518 1.473-1.098 2.335-1.098 1.818 0 2.914 1.542 2.914 3.203 0 1.998-1.504 3.996-3.746 3.996-1.159 0-1.769-.366-2.177-.533l-.47.35-.328-.167c.139-.9.219-1.785.219-2.715V5.798c0-.992-.237-1.023-.831-1.19v-.244c.628-.198 1.284-.473 1.614-.657.172-.09.297-.168.346-.168.093 0 .124.092.124.215V9.32zm0 4.148c0 .58.564 1.557 1.614 1.557 1.677 0 2.382-1.602 2.382-2.96 0-1.647-1.284-3.02-2.507-3.02-.581 0-1.066.367-1.489.719v3.704zM40.933 24.06h.12c.306 0 .63-.04.63-.472V19.24c0-.433-.324-.474-.63-.474h-.12v-.249c.333 0 .844.033 1.263.033.426 0 .937-.033 1.338-.033v.25h-.12c-.306 0-.63.04-.63.473v4.348c0 .432.324.472.63.472h.12v.25c-.41 0-.922-.032-1.347-.032-.418 0-.921.032-1.254.032v-.25z" fill="#fff"/><path d="M43.534 24.346c-.412 0-.923-.034-1.347-.034-.417 0-.919.034-1.254.034h-.036V24.024h.156c.309-.007.59-.032.593-.437V19.24c-.003-.406-.284-.433-.593-.438h-.156V18.48h.036c.335 0 .846.033 1.263.033.425 0 .935-.033 1.338-.033h.038V18.802h-.158c-.309.005-.592.032-.594.438v4.348c.002.405.285.43.595.436h.157V24.346h-.038zm-.037-.071v-.177h-.082c-.305 0-.667-.052-.67-.51V19.24c.003-.459.365-.51.67-.51h.082v-.176c-.393 0-.887.032-1.301.032-.405 0-.895-.03-1.225-.032v.176h.082c.303 0 .667.051.667.51v4.348c0 .458-.364.51-.667.51h-.082v.177c.33-.004.812-.034 1.216-.034.415 0 .908.031 1.31.034zM49.392 22.674l.017-.016v-3.111c0-.682-.487-.78-.742-.78h-.188v-.25c.401 0 .793.033 1.194.033.349 0 .7-.033 1.049-.033v.25h-.128c-.359 0-.76.066-.76 1.053v3.777c0 .29.01.58.051.837h-.324l-4.39-4.764v3.42c0 .722.143.97.8.97h.145v.25c-.366 0-.732-.032-1.1-.032-.382 0-.774.032-1.159.032v-.25h.12c.588 0 .767-.389.767-1.052v-3.496c0-.464-.393-.745-.775-.745h-.111v-.25c.323 0 .656.033.98.033.255 0 .503-.033.758-.033l3.796 4.157z" fill="#fff"/><path d="M49.885 24.47l-.352-.012-4.327-4.694v3.326c.01.722.123.927.765.934h.183V24.346h-.038c-.369 0-.736-.034-1.1-.034-.381 0-.773.034-1.16.034h-.037V24.024h.157c.564-.003.725-.356.731-1.017v-3.495c0-.442-.373-.71-.739-.711h-.149V18.482h.037c.326 0 .66.031.98.031.254 0 .501-.031.788-.02l3.748 4.106v-3.052c-.005-.66-.457-.74-.706-.745h-.225V18.482h.037c.403 0 .796.031 1.194.031.347 0 .697-.031 1.049-.031h.037V18.802h-.164c-.352.01-.713.04-.723 1.018v3.776c0 .29.009.58.05.832l.008.042h-.044zm-.324-.073h.282a5.406 5.406 0 01-.045-.8V19.82c0-.996.429-1.09.796-1.09h.09v-.176c-.336.002-.673.032-1.012.032-.39 0-.77-.03-1.156-.032v.176h.15c.263 0 .78.114.78.817l-.012 3.136-.017.018-.029.025-3.792-4.172c-.253 0-.5.032-.76.032-.312 0-.632-.03-.941-.032l-.002.176h.075c.4 0 .812.297.812.783v3.495c0 .663-.19 1.088-.803 1.09l-.082-.002v.179c.37-.004.749-.034 1.122-.034.356 0 .71.03 1.062.034v-.177h-.107c-.672-.002-.838-.287-.839-1.008v-3.513l4.428 4.82zm-.17-1.723l.028-.024-.028.024zm-.02-.016v-.003l-.006-.006.007.009zM51.998 18.932c-.64 0-.664.15-.792.755h-.256c.034-.232.076-.464.102-.706.035-.232.051-.464.051-.704h.205c.069.249.282.24.513.24h4.398c.23 0 .444-.008.462-.257l.203.033c-.033.224-.068.448-.093.672-.016.224-.016.449-.016.672l-.256.093c-.018-.307-.06-.798-.631-.798h-1.399v4.415c0 .64.299.713.707.713h.162v.25c-.332 0-.93-.032-1.389-.032-.511 0-1.11.032-1.442.032v-.25h.163c.47 0 .707-.04.707-.696v-4.432h-1.399z" fill="#fff"/><path d="M55.36 24.346c-.336 0-.933-.034-1.391-.034-.511 0-1.108.034-1.442.034h-.036V24.024h.198c.47-.011.66-.017.67-.66v-4.397H52v-.073h1.434v4.47c0 .665-.275.733-.743.733h-.126v.175c.337-.002.91-.032 1.405-.032.445 0 1.014.03 1.352.032v-.175h-.125c-.412 0-.744-.099-.744-.75v-4.453h1.436c.572.002.646.476.665.783l.184-.066c0-.216.001-.433.017-.652.025-.213.056-.425.088-.637l-.13-.02c-.04.24-.28.253-.494.25h-4.441c-.2 0-.42-.009-.497-.24h-.14c-.002.23-.018.452-.05.673-.025.228-.065.447-.096.666h.182c.113-.578.186-.766.822-.757v.073c-.63.01-.617.114-.756.728l-.006.028H50.907l.005-.043c.034-.233.078-.464.103-.706.035-.23.052-.46.052-.698v-.037h.27l.006.026c.059.21.216.211.433.215h4.442c.238-.004.41-.007.425-.224l.004-.04.038.009.24.036-.005.037c-.034.222-.068.446-.092.669-.018.22-.018.445-.018.669v.026l-.023.01-.302.106-.003-.048c-.022-.312-.056-.763-.594-.763h-1.362v4.38c.008.625.263.668.67.676h.2V24.345h-.036zM57.157 24.06h.12c.306 0 .63-.04.63-.472V19.24c0-.433-.324-.474-.63-.474h-.12v-.249c.519 0 1.407.033 2.122.033.717 0 1.603-.033 2.182-.033-.014.357-.006.905.019 1.27l-.257.066c-.041-.539-.143-.97-1.04-.97H59v2.174h1.013c.511 0 .623-.282.674-.731h.255a17.978 17.978 0 000 1.918l-.255.05c-.05-.499-.077-.822-.666-.822H59v1.933c0 .54.492.54 1.038.54 1.024 0 1.475-.067 1.731-1.012l.24.057c-.113.44-.214.88-.29 1.32-.547 0-1.527-.032-2.294-.032-.768 0-1.782.032-2.268.032v-.25z" fill="#fff"/><path d="M61.718 24.346c-.548 0-1.528-.035-2.294-.035-.767 0-1.781.035-2.268.035h-.036V24.024h.156c.309-.005.59-.032.593-.437V19.24c-.004-.405-.284-.432-.593-.438h-.156V18.482h.036c.52 0 1.408.031 2.122.031.718 0 1.602-.031 2.183-.031h.038l-.002.037a12.47 12.47 0 00.017 1.266l.002.03-.029.007-.3.076-.001-.042c-.05-.539-.124-.93-1.002-.938h-1.15v2.101h.979c.49-.004.579-.249.637-.696l.003-.033H60.98l-.001.038c-.017.323-.027.646-.027.97 0 .314.01.629.027.945v.029l-.03.007-.296.057-.003-.039c-.059-.506-.063-.784-.63-.79h-.985v1.898c0 .504.447.5 1.003.504 1.027-.006 1.438-.054 1.695-.986l.009-.034.036.006.273.069-.008.035c-.11.44-.213.878-.289 1.317l-.007.03h-.03zm-.031-.073c.074-.418.171-.838.276-1.256l-.169-.041c-.255.928-.75 1.011-1.756 1.005-.537 0-1.075 0-1.077-.576v-1.97h1.06c.595-.006.656.344.698.817l.184-.038a16.927 16.927 0 010-1.852h-.184c-.047.432-.187.736-.706.73H58.96v-2.246h1.223c.887-.006 1.034.44 1.072.961l.184-.048a13.623 13.623 0 01-.025-.812c0-.142.003-.276.008-.393-.58.002-1.443.032-2.145.032-.7 0-1.563-.03-2.085-.032v.176h.083c.304 0 .667.051.668.51v4.348c-.001.457-.364.508-.668.51h-.083v.175c.497 0 1.482-.032 2.231-.032.752 0 1.713.031 2.263.032zM63.158 19.396c0-.605-.34-.63-.606-.63H62.4v-.25c.273 0 .801.034 1.322.034.511 0 .92-.033 1.372-.033 1.074 0 2.03.282 2.03 1.462 0 .745-.511 1.202-1.185 1.46l1.457 2.123c.24.351.409.45.828.498v.25c-.282 0-.555-.032-.836-.032-.264 0-.538.032-.801.032-.656-.838-1.22-1.734-1.775-2.69h-.56v1.777c0 .64.305.663.697.663h.154v.25c-.487 0-.98-.032-1.466-.032-.41 0-.811.032-1.237.032v-.25h.153c.317 0 .606-.14.606-.447v-4.216zm1.092 1.926h.417c.853 0 1.312-.316 1.312-1.295 0-.738-.485-1.211-1.245-1.211-.256 0-.365.026-.484.033v2.473z" fill="#fff"/><path d="M68.223 24.346c-.286 0-.557-.034-.838-.034-.26 0-.532.034-.83.02-.653-.835-1.214-1.727-1.765-2.675h-.503v1.74c.008.623.266.618.66.628h.192V24.346H65.1c-.487 0-.982-.034-1.467-.034-.407 0-.807.034-1.235.034h-.037V24.025h.19c.308-.002.567-.132.568-.412v-4.216c-.006-.59-.303-.586-.568-.595h-.19V18.481h.037c.276 0 .803.032 1.322.032.509 0 .919-.032 1.373-.032 1.074.002 2.064.29 2.067 1.496 0 .75-.51 1.217-1.168 1.478l1.433 2.088c.239.344.387.43.802.482l.031.004V24.346h-.036zm-3.974-2.761h.583l.01.018c.556.954 1.116 1.849 1.744 2.672.26 0 .534-.034.8-.034.272 0 .534.029.8.032v-.181c-.4-.049-.588-.165-.82-.51l-1.484-2.16.042-.017c.667-.255 1.16-.699 1.161-1.429 0-1.15-.92-1.418-1.991-1.422-.45 0-.86.032-1.373.032-.501 0-1.007-.03-1.286-.032v.176h.117c.265 0 .642.043.642.667v4.216c0 .333-.32.485-.642.486h-.117v.174c.41 0 .8-.032 1.2-.032.477 0 .957.031 1.43.032V24.1h-.117c-.39-.001-.736-.048-.736-.703v-1.811h.037zm0-.228h-.037v-2.541l.033-.003c.116-.008.231-.032.49-.032.776 0 1.281.491 1.282 1.248-.002.99-.49 1.327-1.35 1.328h-.418zm.418-.071c.844-.007 1.269-.293 1.278-1.257-.005-.725-.468-1.175-1.21-1.178-.231 0-.34.02-.448.03v2.405h.38zM74.012 22.674l.015-.016v-3.111c0-.682-.485-.78-.74-.78h-.188v-.25c.4 0 .792.033 1.194.033.35 0 .698-.033 1.05-.033v.25h-.129c-.358 0-.759.066-.759 1.053v3.777c0 .29.008.58.05.837h-.323l-4.39-4.764v3.42c0 .722.144.97.8.97h.145v.25c-.366 0-.733-.032-1.099-.032-.385 0-.777.032-1.16.032v-.25h.118c.59 0 .768-.389.768-1.052v-3.496c0-.464-.392-.745-.775-.745h-.111v-.25c.323 0 .657.033.98.033.255 0 .503-.033.759-.033l3.795 4.157z" fill="#fff"/><path d="M74.506 24.47l-.351-.012-4.328-4.694v3.325c.01.723.123.927.766.936h.18V24.346h-.037c-.369 0-.734-.035-1.1-.035-.38 0-.774.035-1.158.035h-.038V24.024h.156c.563-.003.724-.356.73-1.02v-3.493c0-.442-.373-.71-.737-.71h-.15V18.48h.039c.325 0 .659.033.98.033.25 0 .498-.033.784-.021l3.748 4.107v-3.053c-.002-.66-.456-.741-.704-.744h-.225V18.48h.037c.403 0 .796.033 1.194.033.348 0 .698-.033 1.049-.033h.037V18.802h-.164c-.352.009-.714.04-.723 1.018v3.776c0 .29.008.578.05.834l.006.04h-.041zm-.324-.073h.28a5.543 5.543 0 01-.046-.8V19.82c.001-.996.433-1.088.798-1.09h.09v-.176c-.335.002-.673.032-1.012.032-.391 0-.771-.03-1.157-.032v.175h.151c.263.003.78.115.78.817l-.013 3.137-.016.017-.026.027-3.795-4.173c-.253 0-.5.032-.758.032-.316 0-.634-.03-.945-.032v.175h.076c.4.003.811.297.811.783v3.493c0 .667-.192 1.09-.804 1.093h-.083v.175c.369-.002.749-.032 1.123-.032.358 0 .712.03 1.065.032v-.175h-.108c-.672 0-.84-.286-.84-1.009v-3.51l4.429 4.818zm-.17-1.723l.025-.024-.026.024zm-.022-.016v-.003l-.006-.006.006.01zM76.714 23.123c-.086.282-.19.5-.19.647 0 .25.36.29.64.29h.095v.25a19.86 19.86 0 00-1.034-.032c-.306 0-.611.015-.919.032v-.25h.052c.332 0 .614-.19.74-.54l1.366-3.808c.11-.307.264-.722.316-1.03.271-.09.613-.256.775-.356.026-.008.04-.017.068-.017.025 0 .041 0 .06.026.025.066.05.14.077.207l1.569 4.34c.102.29.203.598.314.847.103.233.282.331.564.331h.05v.25a24.837 24.837 0 00-1.175-.032c-.418 0-.846.015-1.28.032v-.25h.094c.195 0 .529-.032.529-.24 0-.108-.077-.331-.172-.598l-.332-.962h-1.935l-.272.863zm1.244-3.676h-.017l-.793 2.348h1.593l-.783-2.348z" fill="#fff"/><path d="M81.255 24.346c-.384-.017-.767-.035-1.173-.035-.419 0-.843.018-1.28.035l-.038.002V24.023h.131c.198 0 .491-.043.491-.203.002-.094-.074-.322-.168-.586l-.325-.939h-1.88l-.266.839c-.086.283-.188.502-.188.637.003.203.322.252.605.252h.13V24.348l-.038-.002c-.34-.017-.689-.035-1.029-.035-.306 0-.613.018-.919.035l-.04.002V24.023h.088c.318 0 .583-.176.706-.514l1.365-3.809c.112-.307.266-.721.34-1.052.267-.088.61-.255.774-.356.023-.008.047-.02.082-.02.02 0 .067.006.094.05.024.068.05.141.077.209l1.57 4.34c.1.291.202.598.314.843.098.221.255.308.53.31h.086V24.347l-.039-.002zm-2.416-.075c.422-.014.835-.03 1.243-.03.396 0 .766.016 1.137.03v-.173h-.012c-.292.002-.493-.11-.598-.354-.111-.252-.215-.56-.315-.85l-1.57-4.34c-.026-.067-.05-.142-.073-.2-.007-.009-.006-.009-.013-.009h-.015c-.018 0-.028.006-.05.011a3.22 3.22 0 01-.76.332c-.052.314-.205.729-.316 1.036l-1.365 3.81c-.13.36-.428.565-.775.564h-.014v.173c.292-.014.588-.03.884-.03.33 0 .666.016.992.03v-.173h-.055c-.278-.003-.666-.034-.676-.327 0-.166.105-.378.188-.658l.038.01-.038-.011.281-.887h1.988l.342.986c.096.266.173.487.173.61-.011.254-.371.272-.565.277h-.056v.173zm-1.743-2.44l.816-2.42h.046v.036l-.01.001.01-.001v-.037h.026l.81 2.421h-1.698zm.102-.072h1.492l-.742-2.224-.75 2.224zm.723-2.302l.02-.006-.02.006zM81.632 18.932c-.64 0-.665.15-.793.755h-.256c.034-.232.077-.464.103-.706.035-.232.05-.464.05-.704h.206c.068.249.282.24.51.24h4.401c.23 0 .442-.008.46-.257l.204.033c-.033.224-.066.448-.092.672-.019.224-.019.449-.019.672l-.255.093c-.016-.307-.059-.798-.63-.798h-1.399v4.415c0 .64.3.713.707.713h.162v.25c-.332 0-.928-.032-1.39-.032-.51 0-1.108.032-1.44.032v-.25h.162c.47 0 .708-.04.708-.696v-4.432h-1.399z" fill="#fff"/><path d="M84.991 24.346c-.334 0-.931-.034-1.389-.034-.51 0-1.107.034-1.441.034h-.038V24.024h.199c.47-.011.66-.017.67-.66v-4.397h-1.36v-.073h1.435v4.47c0 .665-.276.73-.745.733h-.125v.177c.338-.004.91-.034 1.405-.034.445 0 1.015.03 1.352.034v-.177h-.126c-.41-.002-.742-.098-.743-.75v-4.453h1.436c.572.002.647.476.663.784l.186-.067c0-.216 0-.433.017-.65.024-.214.056-.427.087-.639l-.129-.02c-.039.24-.28.254-.492.25H81.41c-.2.003-.418-.009-.496-.242h-.14c-.001.23-.017.454-.051.675-.023.228-.065.448-.096.666h.182c.113-.578.187-.766.824-.757v.073c-.632.01-.617.114-.757.728l-.007.028H80.54l.005-.042c.035-.234.078-.465.103-.705.035-.232.051-.462.051-.7v-.037h.27l.007.026c.06.21.215.211.433.214l.043.002h4.401c.236-.005.408-.008.422-.225l.003-.04.04.009.242.037-.007.036c-.034.222-.067.446-.093.669-.017.22-.017.446-.017.67v.025l-.024.01-.302.106-.002-.048c-.022-.312-.056-.763-.594-.763h-1.362v4.38c.009.625.264.668.67.676h.199V24.346h-.037zM86.832 24.06h.12c.307 0 .63-.04.63-.472V19.24c0-.433-.323-.474-.63-.474h-.12v-.249c.333 0 .844.033 1.26.033.428 0 .94-.033 1.34-.033v.25h-.119c-.306 0-.632.04-.632.473v4.348c0 .432.326.472.632.472h.12v.25c-.41 0-.922-.032-1.347-.032-.419 0-.921.032-1.254.032v-.25z" fill="#fff"/><path d="M89.433 24.346c-.412 0-.922-.035-1.348-.035-.416 0-.92.035-1.253.035h-.037V24.024h.157c.308-.005.59-.031.591-.437V19.24c0-.405-.284-.433-.592-.438h-.156V18.482h.037c.333 0 .845.031 1.26.031.426 0 .937-.031 1.34-.031h.037V18.802h-.156c-.311.005-.59.033-.595.438v4.348c.004.406.284.432.596.436h.155V24.346h-.036zm-.038-.073v-.175h-.081c-.306 0-.668-.053-.668-.51V19.24c0-.459.362-.51.668-.51h.08v-.176c-.393.002-.886.032-1.301.032-.404 0-.893-.03-1.224-.032v.176h.082c.304 0 .667.051.668.51v4.348c-.001.457-.364.51-.668.51h-.082v.175c.33-.003.812-.032 1.216-.032.414 0 .908.03 1.31.032zM92.833 18.393c1.818 0 3.266 1.097 3.266 2.864 0 1.909-1.407 3.178-3.222 3.178-1.809 0-3.189-1.195-3.189-2.98 0-1.725 1.372-3.062 3.145-3.062zm.129 5.676c1.654 0 1.942-1.42 1.942-2.63 0-1.213-.671-2.681-2.087-2.681-1.493 0-1.936 1.294-1.936 2.405 0 1.486.7 2.906 2.081 2.906z" fill="#fff"/><path d="M89.65 21.455c.003-1.745 1.392-3.096 3.183-3.098V18.428c-1.753 0-3.11 1.32-3.11 3.027.003 1.764 1.364 2.942 3.154 2.942 1.797 0 3.184-1.251 3.187-3.142-.002-1.745-1.429-2.825-3.231-2.827V18.357c1.831 0 3.3 1.108 3.303 2.898-.002 1.93-1.427 3.211-3.259 3.215-1.823-.004-3.224-1.21-3.227-3.015zm1.194-.291c.003-1.117.45-2.444 1.973-2.444 1.447.004 2.123 1.5 2.125 2.72-.002 1.21-.295 2.664-1.98 2.664v-.07c1.621-.003 1.902-1.385 1.906-2.595 0-1.203-.665-2.643-2.051-2.645-1.463.002-1.896 1.264-1.899 2.37.001 1.478.694 2.866 2.044 2.87v.07c-1.415-.002-2.115-1.446-2.118-2.94zM101.845 22.674l.017-.016v-3.111c0-.682-.487-.78-.743-.78h-.185v-.25c.4 0 .792.033 1.192.033.35 0 .7-.033 1.05-.033v.25h-.129c-.357 0-.759.066-.759 1.053v3.777c0 .29.009.58.052.837h-.324l-4.392-4.764v3.42c0 .722.145.97.801.97h.146v.25c-.367 0-.733-.032-1.1-.032-.383 0-.776.032-1.16.032v-.25h.12c.59 0 .766-.389.766-1.052v-3.496c0-.464-.39-.745-.775-.745h-.111v-.25c.324 0 .657.033.98.033.256 0 .503-.033.76-.033l3.794 4.157z" fill="#fff"/><path d="M102.341 24.47l-.353-.012-4.327-4.694v3.326c.01.722.123.926.763.933h.184V24.346h-.037c-.37 0-.735-.034-1.1-.034-.382 0-.773.034-1.16.034h-.036V24.023h.155c.563-.001.724-.354.731-1.015v-3.496c0-.442-.373-.71-.74-.71h-.146V18.482h.035c.327 0 .66.031.981.031.253 0 .5-.031.788-.02l3.746 4.106v-3.052c-.003-.66-.457-.74-.706-.745h-.224V18.482h.038c.402 0 .795.032 1.192.032.35 0 .697-.032 1.051-.032h.036V18.802h-.165c-.351.01-.714.04-.721 1.018v3.776c0 .29.007.58.048.834l.007.04h-.04zm-.324-.073h.279a5.45 5.45 0 01-.044-.8V19.82c0-.998.43-1.088.795-1.09h.092v-.176c-.336.002-.673.032-1.014.032-.388 0-.769-.03-1.156-.032v.175h.15c.264.003.779.116.779.818l-.01 3.136-.016.018-.027.026-3.794-4.173c-.252 0-.5.032-.76.032-.314 0-.634-.03-.944-.032v.175h.075c.4.003.813.297.813.783v3.496c0 .663-.19 1.088-.804 1.09h-.084v.175c.37-.002.75-.032 1.125-.032.355 0 .708.03 1.062.032v-.175h-.11c-.67 0-.836-.286-.836-1.008v-3.513l4.429 4.82zm-.172-1.723l.027-.024-.027.024zm-.02-.016v-.003l-.007-.006.007.01zM104.546 23.123c-.083.282-.187.5-.187.647 0 .25.359.29.639.29h.095v.25a19.866 19.866 0 00-1.032-.032c-.309 0-.614.015-.92.032v-.25h.049c.334 0 .616-.19.742-.54l1.366-3.808c.11-.307.264-.722.314-1.03.273-.09.614-.256.777-.356.025-.008.042-.017.068-.017.025 0 .041 0 .058.026l.079.207 1.568 4.34c.102.29.204.598.316.847.102.233.282.331.562.331h.052v.25a24.863 24.863 0 00-1.178-.032c-.416 0-.843.015-1.278.032v-.25h.094c.195 0 .529-.032.529-.24 0-.108-.077-.331-.172-.598l-.331-.962h-1.936l-.274.863zm1.246-3.676h-.017l-.794 2.348h1.596l-.785-2.348z" fill="#fff"/><path d="M109.089 24.346c-.384-.015-.767-.034-1.175-.034-.415 0-.842.019-1.277.034l-.038.002V24.025h.129c.199 0 .493-.045.493-.205.002-.094-.075-.32-.17-.586l-.324-.939h-1.882l-.264.839c-.085.284-.186.502-.185.636 0 .204.32.255.602.255h.13V24.348l-.038-.002c-.341-.015-.69-.034-1.029-.034-.306 0-.612.019-.92.034l-.037.002V24.025h.086c.318-.002.584-.18.708-.516l1.365-3.809c.108-.308.262-.721.338-1.05.268-.091.61-.257.776-.358.022-.008.045-.018.08-.018a.096.096 0 01.093.049c.026.065.051.14.079.207l1.568 4.34c.102.292.204.599.315.845.099.22.255.307.527.31h.089V24.348l-.039-.002zm-2.417-.074c.422-.015.837-.031 1.242-.031.397 0 .769.016 1.14.03l-.001-.173h-.014c-.289 0-.49-.11-.596-.354-.112-.252-.214-.56-.316-.85l-1.569-4.34-.072-.198c-.007-.01-.007-.01-.013-.01h-.016c-.018 0-.027.005-.048.01a3.317 3.317 0 01-.76.332c-.053.314-.208.728-.318 1.036l-1.365 3.809c-.13.36-.427.566-.776.565h-.013v.173c.293-.014.587-.03.884-.03.33 0 .666.016.995.03v-.173h-.058c-.278-.003-.667-.033-.677-.328.002-.165.108-.376.19-.657l.035.01-.035-.011.281-.887h1.988l.342.986c.094.267.172.487.172.61-.013.254-.371.272-.566.277h-.056v.174zm-1.742-2.441l.818-2.42h.044v.036l-.008.001.008-.001v-.037h.027l.806 2.42h-1.695zm.103-.072h1.491l-.742-2.223-.749 2.223zm.724-2.302l.017-.006-.017.006zM111.241 23.497c0 .332.236.43.509.465.35.025.734.025 1.127-.017.358-.042.665-.241.817-.448.137-.183.213-.416.265-.598h.247c-.093.473-.213.939-.316 1.411-.748 0-1.5-.032-2.25-.032-.751 0-1.5.032-2.25.032v-.25h.117c.308 0 .642-.04.642-.555V19.24c0-.433-.334-.474-.642-.474h-.117v-.249c.45 0 .894.033 1.345.033.437 0 .862-.033 1.298-.033v.25h-.215c-.323 0-.577.009-.577.447v4.283z" fill="#fff"/><path d="M113.89 24.346c-.751 0-1.501-.034-2.249-.034-.751 0-1.502.034-2.253.034h-.036V24.024h.155c.309-.007.601-.028.605-.52v-4.267c-.004-.403-.294-.43-.605-.436h-.155V18.482h.036c.453 0 .897.031 1.348.031.433 0 .858-.031 1.296-.031h.035V18.802h-.249c-.33.009-.536-.006-.542.412v4.283c.002.309.21.392.476.428a6.198 6.198 0 001.119-.016 1.19 1.19 0 00.793-.432c.132-.178.207-.405.258-.587l.008-.027h.321l-.008.044c-.096.474-.213.938-.317 1.41l-.007.029h-.029zm-.031-.073c.099-.45.211-.89.303-1.339h-.175c-.054.18-.129.403-.263.585-.16.215-.475.417-.845.462a6.591 6.591 0 01-1.133.016c-.278-.03-.547-.145-.545-.5v-4.283c0-.46.299-.484.617-.484h.177v-.176c-.421.002-.835.032-1.259.032-.442 0-.874-.03-1.311-.032v.176h.082c.304 0 .677.051.677.508v4.267c0 .537-.371.593-.677.593h-.082v.175c.737 0 1.475-.032 2.215-.032.741 0 1.482.031 2.219.032zM114.102 18.281c.514 0 .898.385.898.877 0 .49-.384.871-.898.871-.513 0-.898-.38-.898-.87 0-.493.385-.878.898-.878zm0 1.586a.714.714 0 00.711-.709.714.714 0 00-.711-.713.718.718 0 00-.712.713c0 .375.309.709.712.709zm-.447-.248v-.043c.111-.015.131-.012.131-.079v-.646c0-.091-.01-.122-.126-.118v-.044h.459c.158 0 .303.073.303.232 0 .13-.088.226-.212.263l.147.2c.069.091.147.177.198.206v.029h-.175c-.084 0-.157-.172-.323-.403h-.099v.29c0 .058.021.054.131.07v.043h-.434zm.303-.46h.106c.116 0 .17-.086.17-.224 0-.14-.084-.188-.176-.188h-.1v.411z" fill="#fff"/></svg>