<svg width="128" height="21" fill="none" xmlns="http://www.w3.org/2000/svg"><path d="M10.536 15.28c-1.256 1.093-2.887 1.57-5.47 1.57H3.994V3.798h1.072c2.583 0 4.15.445 5.47 1.596 1.382 1.186 2.214 3.023 2.214 4.914 0 1.894-.832 3.788-2.214 4.973zM5.867.454H0v19.738h5.836c3.103 0 5.344-.705 7.311-2.278 2.338-1.864 3.72-4.672 3.72-7.577 0-5.825-4.518-9.883-11-9.883M18.706 20.191h3.997V.453h-3.997v19.738zM32.476 8.028c-2.399-.855-3.103-1.42-3.103-2.486 0-1.243 1.255-2.187 2.977-2.187 1.198 0 2.182.473 3.224 1.598l2.09-2.638C35.947.867 33.89.127 31.645.127c-3.626 0-6.391 2.425-6.391 5.656 0 2.719 1.288 4.111 5.041 5.412 1.565.532 2.361.886 2.763 1.125.799.502 1.199 1.213 1.199 2.042 0 1.6-1.32 2.784-3.104 2.784-1.906 0-3.442-.918-4.362-2.633l-2.582 2.395c1.841 2.604 4.053 3.758 7.094 3.758 4.154 0 7.067-2.66 7.067-6.481 0-3.136-1.347-4.556-5.893-6.157M39.63 10.336c0 5.802 4.73 10.3 10.816 10.3 1.72 0 3.194-.325 5.01-1.15v-4.532c-1.597 1.54-3.012 2.162-4.825 2.162-4.025 0-6.882-2.811-6.882-6.809 0-3.79 2.948-6.778 6.697-6.778 1.906 0 3.35.655 5.01 2.22V1.22C53.703.363 52.26.008 50.54.008c-6.055 0-10.91 4.59-10.91 10.329zM87.147 13.711L81.683.453h-4.366l8.695 20.245h2.151L97.015.453h-4.332l-5.536 13.258zM98.823 20.191h11.335V16.85h-7.342v-5.328h7.071V8.179h-7.071V3.798h7.342V.453H98.823v19.738M117.964 9.54h-1.167V3.562h1.23c2.489 0 3.843 1.005 3.843 2.926 0 1.984-1.354 3.052-3.906 3.052zm8.019-3.26c0-3.695-2.643-5.827-7.252-5.827h-5.927v19.738h3.993v-7.929h.521l5.532 7.93h4.915l-6.45-8.316c3.01-.59 4.668-2.573 4.668-5.595z" fill="#fff"/><ellipse cx="67.721" cy="10.5" rx="10.419" ry="10.5" fill="url(#paint0_linear)"/><ellipse cx="67.721" cy="10.5" rx="10.419" ry="10.5" fill="url(#paint1_linear)"/><defs><linearGradient id="paint0_linear" x1="57.302" y1="0" x2="78.302" y2="20.837" gradientUnits="userSpaceOnUse"><stop offset=".153" stop-color="#E2491E"/><stop offset=".853" stop-color="#F59314"/></linearGradient><linearGradient id="paint1_linear" x1="57.302" y1="0" x2="78.302" y2="20.837" gradientUnits="userSpaceOnUse"><stop offset=".198" stop-color="#A42A20"/><stop offset=".438" stop-color="#E2491E" stop-opacity="0"/></linearGradient></defs></svg>