<svg width="83" height="31" viewBox="0 0 83 31" fill="none" xmlns="http://www.w3.org/2000/svg">
<path d="M12.9393 6.84793C13.8718 6.54438 14.8687 6.38102 15.9064 6.38102C20.4323 6.38102 24.2108 9.51398 25.0764 13.6787L31.492 12.4033C30.0198 5.32617 23.6022 0 15.9064 0C14.1429 0 12.4489 0.27999 10.8638 0.796031L12.9393 6.84793Z" fill="#F2CA30"/>
<path d="M5.36799 27.1121L9.70646 22.3315C7.76969 20.6592 6.548 18.2188 6.548 15.5C6.548 12.7832 7.76825 10.344 9.7038 8.67363L5.36428 3.89265C2.0755 6.7325 0 10.8808 0 15.5C0 20.1224 2.07633 24.2719 5.36799 27.1121Z" fill="#4DA3DD"/>
<path d="M25.0745 17.3301C24.2055 21.4924 20.4307 24.6194 15.9064 24.6194C14.8679 24.6194 13.8684 24.4564 12.9365 24.1509L10.8583 30.2052C12.4434 30.7208 14.1409 31 15.9064 31C23.5949 31 30.0112 25.6827 31.4894 18.6119L25.0745 17.3301Z" fill="#CF4329"/>
<path d="M37.1021 20.5886C36.8919 20.2568 36.6064 19.7259 36.4341 19.3353C35.4181 17.0367 35.3694 14.6578 36.2275 12.3739C37.1709 9.86962 38.9729 7.95201 41.301 6.97586C44.2284 5.74804 47.4657 5.99011 50.2714 7.61251C52.0537 8.60906 53.3168 10.1476 54.2766 12.3232C54.3987 12.6016 54.506 12.8991 54.611 13.152L37.1021 20.5886ZM42.9487 10.666C40.8699 11.5368 39.7983 13.4371 40.0187 15.6655L48.8246 11.9717C47.3103 10.2375 45.3396 9.6627 42.9487 10.666ZM49.9227 18.7026C49.9206 18.7042 49.9194 18.7058 49.9176 18.7074L49.7351 18.5876C49.2096 19.4188 48.39 20.0918 47.3551 20.5291C45.3866 21.3635 43.5626 21.149 42.2526 20.029L42.1321 20.2076C42.1307 20.2056 42.1303 20.204 42.1284 20.204L39.8945 23.4612C40.449 23.837 41.0445 24.1549 41.6699 24.4094C44.1376 25.4083 46.6627 25.3624 49.15 24.308C50.9494 23.5483 52.3607 22.3892 53.3258 20.9205L49.9227 18.7026Z" fill="white"/>
<path d="M60.7312 2.48V20.5894L63.62 21.7305L61.9787 25.4634L58.7899 24.1693C58.0744 23.8673 57.5871 23.4052 57.2183 22.8832C56.8658 22.3512 56.6019 21.6214 56.6019 20.6389V2.48H60.7312Z" fill="white"/>
<path d="M68.2147 15.6573C68.2166 14.1152 68.9148 12.7324 70.0205 11.7926L67.0569 8.57173C65.0469 10.3036 63.7807 12.8338 63.7784 15.6529C63.7752 18.4732 65.0395 21.0063 67.0476 22.7425L70.0078 19.5184C68.9077 18.5746 68.2135 17.1958 68.2147 15.6573Z" fill="white"/>
<path d="M73.4809 20.797C72.8974 20.7953 72.3355 20.7015 71.8113 20.5314L70.3958 24.6329C71.363 24.9496 72.3991 25.1218 73.4764 25.1234C78.1692 25.1278 82.0878 21.8825 82.9956 17.5685L78.645 16.7025C78.1501 19.0416 76.0259 20.7989 73.4809 20.797Z" fill="white"/>
<path d="M73.4936 6.2C72.4178 6.19882 71.3822 6.36937 70.4159 6.6829L71.8187 10.788C72.3445 10.6187 72.9063 10.5253 73.489 10.5253C76.0402 10.5276 78.1659 12.2954 78.649 14.6404L83 13.7804C82.105 9.46042 78.19 6.2032 73.4936 6.2Z" fill="white"/>
</svg>
