<svg width="64" height="68" viewBox="0 0 64 68" fill="none" xmlns="http://www.w3.org/2000/svg">
<g filter="url(#filter0_d)">
<path fill-rule="evenodd" clip-rule="evenodd" d="M32 61.3334C32 61.3334 56 45.3334 56 26.6667C56 20.3016 53.4714 14.1971 48.9706 9.69618C44.4697 5.19531 38.3652 2.66675 32 2.66675C25.6348 2.66675 19.5303 5.19531 15.0294 9.69618C10.5286 14.1971 8 20.3016 8 26.6667C8 45.3334 32 61.3334 32 61.3334ZM40 27C40 31.4183 36.4183 35 32 35C27.5817 35 24 31.4183 24 27C24 22.5817 27.5817 19 32 19C36.4183 19 40 22.5817 40 27Z" fill="url(#paint0_linear)"/>
</g>
<path opacity="0.15" fill-rule="evenodd" clip-rule="evenodd" d="M32 40C39.1797 40 45 34.1797 45 27C45 19.8203 39.1797 14 32 14C24.8203 14 19 19.8203 19 27C19 34.1797 24.8203 40 32 40ZM32 35C36.4183 35 40 31.4183 40 27C40 22.5817 36.4183 19 32 19C27.5817 19 24 22.5817 24 27C24 31.4183 27.5817 35 32 35Z" fill="url(#paint1_linear)"/>
<defs>
<filter id="filter0_d" x="4" y="0.666748" width="56" height="66.6667" filterUnits="userSpaceOnUse" color-interpolation-filters="sRGB">
<feFlood flood-opacity="0" result="BackgroundImageFix"/>
<feColorMatrix in="SourceAlpha" type="matrix" values="0 0 0 0 0 0 0 0 0 0 0 0 0 0 0 0 0 0 127 0"/>
<feOffset dy="2"/>
<feGaussianBlur stdDeviation="2"/>
<feColorMatrix type="matrix" values="0 0 0 0 0 0 0 0 0 0 0 0 0 0 0 0 0 0 0.16 0"/>
<feBlend mode="normal" in2="BackgroundImageFix" result="effect1_dropShadow"/>
<feBlend mode="normal" in="SourceGraphic" in2="effect1_dropShadow" result="shape"/>
</filter>
<linearGradient id="paint0_linear" x1="8" y1="3" x2="56" y2="61" gradientUnits="userSpaceOnUse">
<stop stop-color="#FE5303"/>
<stop offset="1" stop-color="#FE0303"/>
</linearGradient>
<linearGradient id="paint1_linear" x1="24.5" y1="17" x2="42" y2="37.5" gradientUnits="userSpaceOnUse">
<stop stop-color="#2C3F58"/>
<stop offset="1" stop-color="#2C3F58" stop-opacity="0.04"/>
</linearGradient>
</defs>
</svg>
