<svg width="46" height="35" fill="none" xmlns="http://www.w3.org/2000/svg"><path d="M45.916 27.944c0 3.89-3.198 7.056-7.124 7.056H.027V7.056C.028 3.166 3.226 0 7.152 0h38.764v27.944z" fill="#fff"/><path d="M33.294 20.778h2.945c.084 0 .28-.028.365-.028a1.304 1.304 0 001.038-1.306c0-.666-.477-1.166-1.038-1.305-.084-.028-.253-.028-.365-.028h-2.945v2.667z" fill="url(#paint0_linear)"/><path d="M35.903 2.361c-2.805 0-5.105 2.25-5.105 5.056v5.25h7.208c.168 0 .365 0 .505.027 1.627.084 2.833.917 2.833 2.362 0 1.138-.813 2.11-2.328 2.305v.056c1.655.11 2.917 1.027 2.917 2.444 0 1.528-1.402 2.528-3.254 2.528h-7.91v10.278h7.49c2.804 0 5.104-2.25 5.104-5.056V2.361h-7.46z" fill="url(#paint1_linear)"/><path d="M37.277 15.389c0-.667-.477-1.111-1.038-1.195-.056 0-.196-.027-.28-.027h-2.665v2.444h2.665c.084 0 .252 0 .28-.028.561-.083 1.038-.527 1.038-1.194z" fill="url(#paint2_linear)"/><path d="M7.685 2.361c-2.804 0-5.104 2.25-5.104 5.056v12.472c1.43.694 2.917 1.139 4.403 1.139 1.767 0 2.72-1.056 2.72-2.5v-5.89h4.377V18.5c0 2.278-1.43 4.139-6.283 4.139-2.946 0-5.246-.639-5.246-.639v10.639h7.49c2.804 0 5.104-2.25 5.104-5.056V2.361h-7.46z" fill="url(#paint3_linear)"/><path d="M21.794 2.361c-2.805 0-5.105 2.25-5.105 5.056v6.61c1.29-1.083 3.534-1.777 7.152-1.61 1.936.083 4.011.61 4.011.61v2.14c-1.037-.528-2.271-1-3.87-1.111-2.749-.195-4.404 1.138-4.404 3.472 0 2.36 1.655 3.694 4.404 3.472 1.599-.111 2.833-.611 3.87-1.111v2.139s-2.047.528-4.01.61c-3.619.168-5.863-.527-7.153-1.61v11.666h7.49c2.804 0 5.104-2.25 5.104-5.055V2.36h-7.489z" fill="url(#paint4_linear)"/><defs><linearGradient id="paint0_linear" x1="30.783" y1="19.454" x2="43.389" y2="19.454" gradientUnits="userSpaceOnUse"><stop stop-color="#007940"/><stop offset=".229" stop-color="#00873F"/><stop offset=".743" stop-color="#40A737"/><stop offset="1" stop-color="#5CB531"/></linearGradient><linearGradient id="paint1_linear" x1="30.783" y1="17.523" x2="43.377" y2="17.523" gradientUnits="userSpaceOnUse"><stop stop-color="#007940"/><stop offset=".229" stop-color="#00873F"/><stop offset=".743" stop-color="#40A737"/><stop offset="1" stop-color="#5CB531"/></linearGradient><linearGradient id="paint2_linear" x1="30.783" y1="15.398" x2="43.388" y2="15.398" gradientUnits="userSpaceOnUse"><stop stop-color="#007940"/><stop offset=".229" stop-color="#00873F"/><stop offset=".743" stop-color="#40A737"/><stop offset="1" stop-color="#5CB531"/></linearGradient><linearGradient id="paint3_linear" x1="2.565" y1="17.509" x2="15.365" y2="17.509" gradientUnits="userSpaceOnUse"><stop stop-color="#1F286F"/><stop offset=".475" stop-color="#004E94"/><stop offset=".826" stop-color="#0066B1"/><stop offset="1" stop-color="#006FBC"/></linearGradient><linearGradient id="paint4_linear" x1="16.607" y1="17.537" x2="29.038" y2="17.537" gradientUnits="userSpaceOnUse"><stop stop-color="#6C2C2F"/><stop offset=".173" stop-color="#882730"/><stop offset=".573" stop-color="#BE1833"/><stop offset=".859" stop-color="#DC0436"/><stop offset="1" stop-color="#E60039"/></linearGradient></defs></svg>