<svg width="119" height="29" viewBox="0 0 119 29" fill="none" xmlns="http://www.w3.org/2000/svg">
<path d="M64.624 11.88C64.176 9.64 62.328 6.728 57.512 6.728C53.76 6.728 50.596 9.416 50.596 12.944C50.596 15.94 52.64 17.984 55.804 18.628L58.576 19.188C60.116 19.496 60.984 20.392 60.984 21.54C60.984 22.94 59.836 23.976 57.764 23.976C54.964 23.976 53.592 22.212 53.424 20.252L49.84 21.204C50.148 24.032 52.472 27.42 57.736 27.42C62.356 27.42 64.904 24.34 64.904 21.288C64.904 18.488 62.972 16.136 59.36 15.436L56.588 14.904C55.132 14.624 54.432 13.756 54.432 12.664C54.432 11.348 55.664 10.144 57.54 10.144C60.06 10.144 60.956 11.852 61.152 12.944L64.624 11.88Z" fill="#2C3F58"/>
<path d="M73.6851 24.032C71.8651 24.032 70.1851 22.688 70.1851 20.112C70.1851 17.508 71.8651 16.192 73.6851 16.192C75.5051 16.192 77.1851 17.508 77.1851 20.112C77.1851 22.716 75.5051 24.032 73.6851 24.032ZM73.6851 12.804C69.5691 12.804 66.4611 15.856 66.4611 20.112C66.4611 24.34 69.5691 27.42 73.6851 27.42C77.8011 27.42 80.9091 24.34 80.9091 20.112C80.9091 15.856 77.8011 12.804 73.6851 12.804Z" fill="#2C3F58"/>
<path d="M89.7566 16.248C91.6046 16.248 92.4726 17.424 92.8086 18.572L96.1406 17.452C95.5526 15.128 93.4246 12.804 89.6726 12.804C85.6686 12.804 82.5326 15.856 82.5326 20.112C82.5326 24.34 85.7246 27.42 89.7846 27.42C93.4526 27.42 95.6086 25.068 96.2246 22.772L92.9486 21.68C92.6406 22.744 91.6886 24.004 89.7846 24.004C87.8806 24.004 86.2566 22.604 86.2566 20.112C86.2566 17.62 87.8526 16.248 89.7566 16.248Z" fill="#2C3F58"/>
<path d="M118.479 27V13.224H114.755V27H118.479ZM114.307 8.716C114.307 9.948 115.343 10.984 116.603 10.984C117.891 10.984 118.899 9.948 118.899 8.716C118.899 7.428 117.891 6.392 116.603 6.392C115.343 6.392 114.307 7.428 114.307 8.716Z" fill="#2C3F58"/>
<path d="M102.407 18.908C102.491 17.396 103.415 16.22 104.983 16.22C106.775 16.22 107.531 17.424 107.531 18.964V27H111.255V18.32C111.255 15.296 109.631 12.86 106.131 12.86C104.815 12.86 103.303 13.308 102.407 14.372V6.728H98.6832L98.4922 6.72656L94.9609 10.2578H98.6832V27H102.407V18.908Z" fill="#2C3F58"/>
<path d="M30.6011 28.1268C31.1684 28.756 32.1718 28.7485 32.6672 28.0627C34.7656 25.1577 36 21.6027 36 17.7633C36 7.95288 27.9411 0 18 0C8.05887 0 0 7.95288 0 17.7633C0 21.5714 1.21434 25.0997 3.28173 27.9916C3.86376 28.8057 5.06619 28.7417 5.64911 27.9282L14.2759 15.8886C14.5745 15.4719 15.1932 15.4505 15.5206 15.8454L21.7059 23.2941L20.3425 26.6553C20.2646 26.8091 20.4614 26.9546 20.589 26.8376L24.849 22.9339C25.1705 22.6393 25.6745 22.663 25.9662 22.9865L30.6011 28.1268Z" fill="#2C3F58"/>
</svg>
