<svg width="45" height="35" fill="none" xmlns="http://www.w3.org/2000/svg"><g clip-path="url(#clip0)"><path d="M44.576 22.523v-.54h-.14l-.163.371-.162-.37h-.141v.54h.1v-.407l.152.35h.103l.152-.351v.407h.1zm-.892 0v-.447h.18v-.09h-.46v.09h.18v.447h.1z" fill="#0099DF"/><path d="M28.59 24.84H16.42V2.972h12.17v21.866z" fill="#6C6BBD"/><path d="M17.192 13.906c0-4.436 2.078-8.387 5.313-10.934A13.852 13.852 0 0013.909 0C6.227 0 0 6.225 0 13.906c0 7.68 6.227 13.906 13.909 13.906a13.852 13.852 0 008.596-2.973 13.881 13.881 0 01-5.313-10.933z" fill="#EB001B"/><path d="M45.01 13.906c0 7.68-6.226 13.907-13.908 13.907a13.857 13.857 0 01-8.597-2.973 13.882 13.882 0 005.313-10.934c0-4.435-2.078-8.386-5.313-10.933A13.856 13.856 0 0131.102 0c7.682 0 13.909 6.226 13.909 13.906" fill="#0099DF"/><path d="M32.709 31.019c.162 0 .394.03.572.1l-.247.757a1.303 1.303 0 00-.503-.093c-.525 0-.787.34-.787.95v2.07h-.804v-3.692h.796v.447c.209-.324.51-.54.974-.54h-.001zm-2.97.825h-1.313v1.668c0 .37.131.618.534.618.208 0 .471-.07.71-.209l.231.687c-.254.178-.656.287-1.003.287-.951 0-1.283-.51-1.283-1.368v-1.683h-.75v-.733h.75v-1.12h.81v1.12h1.313v.734l.002-.001zm-10.284.787c.086-.533.41-.896.982-.896.517 0 .85.324.934.896h-1.916zm2.752.325c-.008-1.151-.72-1.94-1.756-1.94-1.081 0-1.838.788-1.838 1.94 0 1.173.787 1.938 1.893 1.938.556 0 1.066-.139 1.514-.517l-.394-.596a1.758 1.758 0 01-1.074.387c-.517 0-.989-.24-1.104-.904h2.742c.008-.1.016-.2.016-.308zm3.53-.903a2.37 2.37 0 00-1.151-.317c-.44 0-.703.163-.703.433 0 .248.277.317.625.363l.378.054c.804.117 1.29.456 1.29 1.105 0 .703-.617 1.205-1.683 1.205-.603 0-1.16-.155-1.6-.48l.379-.625c.27.208.673.386 1.229.386.548 0 .842-.162.842-.448 0-.208-.21-.325-.65-.386l-.378-.054c-.827-.117-1.275-.487-1.275-1.089 0-.734.603-1.182 1.538-1.182.587 0 1.12.132 1.506.386l-.348.65zm9.909-.272a1.22 1.22 0 00-.46.087 1.109 1.109 0 00-.613.62c-.118.31-.118.653 0 .963a1.104 1.104 0 00.612.62c.297.116.626.116.923 0a1.105 1.105 0 00.617-.62c.118-.31.118-.653 0-.964a1.123 1.123 0 00-.617-.62 1.215 1.215 0 00-.461-.086h-.001zm0-.763a2.08 2.08 0 01.797.15 1.878 1.878 0 011.051 1.027 2.059 2.059 0 010 1.548 1.882 1.882 0 01-1.051 1.029 2.207 2.207 0 01-1.592 0 1.927 1.927 0 01-.63-.41 1.904 1.904 0 01-.416-.619 2.059 2.059 0 010-1.548 1.881 1.881 0 011.047-1.028 2.08 2.08 0 01.796-.149h-.001zM14.76 32.957c0-.649.425-1.182 1.12-1.182.665 0 1.113.51 1.113 1.182 0 .672-.448 1.181-1.112 1.181-.695 0-1.12-.532-1.12-1.181zm2.99 0V31.11h-.803v.447c-.255-.332-.64-.54-1.166-.54-1.035 0-1.847.809-1.847 1.938 0 1.13.81 1.94 1.847 1.94.525 0 .91-.21 1.166-.542v.448h.803v-1.846zm-4.527 1.846v-2.317c0-.873-.556-1.46-1.452-1.468-.471-.008-.959.14-1.298.657-.255-.41-.658-.657-1.222-.657-.393 0-.78.116-1.081.549v-.456h-.803v3.692h.81v-2.047c0-.641.355-.981.904-.981.533 0 .804.347.804.973v2.055h.81v-2.047c0-.641.371-.981.903-.981.55 0 .812.347.812.973v2.055H13.223zm25.325-.278v.09h.085a.082.082 0 00.045-.011.04.04 0 00.018-.034.037.037 0 00-.018-.034.077.077 0 00-.045-.012l-.085.001zm.085-.063a.156.156 0 01.1.029.097.097 0 01.036.08.091.091 0 01-.028.07.14.14 0 01-.08.033l.112.128h-.087l-.103-.127h-.034v.127h-.074v-.34h.158zm-.023.457a.29.29 0 00.261-.173.292.292 0 00.001-.224.273.273 0 00-.151-.15.28.28 0 00-.223 0 .273.273 0 00-.17.209.291.291 0 00.078.256.288.288 0 00.205.084v-.002zm0-.65c.05-.001.1.009.146.029a.366.366 0 01.12.596.381.381 0 01-.41.08.376.376 0 01-.202-.196.363.363 0 01.199-.48.372.372 0 01.148-.03" fill="#fff"/></g><defs><clipPath id="clip0"><path fill="#fff" d="M0 0h45v35H0z"/></clipPath></defs></svg>