<svg width="45" height="35" fill="none" xmlns="http://www.w3.org/2000/svg"><g clip-path="url(#clip0)"><path d="M44.113 34.525v.09h.084a.089.089 0 00.045-.011.04.04 0 00.017-.035.039.039 0 00-.017-.033.08.08 0 00-.045-.011h-.084zm.085-.063a.156.156 0 01.1.029.097.097 0 01.036.08.091.091 0 01-.028.07.139.139 0 01-.08.033l.112.128h-.087l-.103-.127h-.034v.127h-.072v-.34h.157zm-.022.458a.288.288 0 00.261-.173.29.29 0 00-.06-.313.283.283 0 00-.2-.082.285.285 0 00-.205.082.29.29 0 000 .405.287.287 0 00.204.083v-.002zm0-.65a.377.377 0 01.344.224.363.363 0 01-.199.48.374.374 0 01-.52-.342.363.363 0 01.228-.337.372.372 0 01.148-.03l-.001.005zM9.724 32.955c0-.649.425-1.182 1.12-1.182.664 0 1.112.51 1.112 1.182 0 .672-.448 1.182-1.112 1.182-.695 0-1.12-.533-1.12-1.182zm2.99 0V31.11h-.804v.45c-.254-.333-.64-.542-1.166-.542-1.035 0-1.847.812-1.847 1.94 0 1.126.812 1.938 1.847 1.938.525 0 .912-.209 1.166-.541v.448h.803v-1.847zm27.133 0c0-.649.425-1.182 1.12-1.182.665 0 1.113.51 1.113 1.182 0 .672-.448 1.182-1.113 1.182-.695 0-1.12-.533-1.12-1.182zm2.99 0v-3.329h-.803v1.932c-.255-.332-.641-.54-1.167-.54-1.035 0-1.847.811-1.847 1.938 0 1.127.812 1.939 1.847 1.939.526 0 .912-.209 1.167-.541v.448h.803v-1.847zm-20.157-1.22c.518 0 .85.325.935.896h-1.916c.085-.533.409-.896.981-.896zm.016-.72c-1.082 0-1.84.788-1.84 1.94 0 1.173.788 1.938 1.894 1.938.556 0 1.066-.139 1.514-.517l-.394-.595a1.76 1.76 0 01-1.074.386c-.518 0-.989-.24-1.105-.904h2.742c.008-.1.016-.201.016-.309-.008-1.151-.72-1.939-1.753-1.939zm9.695 1.939c0-.649.425-1.182 1.12-1.182.664 0 1.113.51 1.113 1.182 0 .672-.449 1.182-1.113 1.182-.695 0-1.12-.533-1.12-1.182zm2.99 0v-1.845h-.803v.45c-.256-.333-.641-.542-1.166-.542-1.035 0-1.848.812-1.848 1.94 0 1.126.812 1.938 1.848 1.938.525 0 .91-.209 1.166-.541v.448h.803V32.954zm-7.525 0c0 1.12.78 1.939 1.97 1.939.556 0 .927-.124 1.328-.44l-.386-.65c-.301.217-.618.333-.967.333-.641-.008-1.113-.471-1.113-1.182 0-.71.472-1.174 1.113-1.182.348 0 .665.116.967.332l.386-.648c-.402-.317-.772-.44-1.328-.44-1.19 0-1.97.818-1.97 1.938zm10.352-1.939c-.463 0-.765.217-.973.541v-.447h-.796V34.8h.804v-2.07c0-.61.262-.95.787-.95.172-.002.343.03.503.093l.247-.756a1.71 1.71 0 00-.572-.101zm-21.524.387c-.387-.255-.92-.386-1.506-.386-.936 0-1.538.448-1.538 1.182 0 .602.448.973 1.274 1.089l.38.054c.44.062.647.178.647.386 0 .286-.292.448-.841.448-.556 0-.958-.177-1.229-.386l-.377.626c.44.325.997.48 1.599.48 1.067 0 1.685-.503 1.685-1.206 0-.649-.487-.988-1.29-1.104l-.379-.055c-.348-.045-.626-.115-.626-.362 0-.27.262-.433.703-.433.471 0 .928.178 1.151.317l.348-.649h-.002zm10.361-.385c-.463 0-.765.216-.973.54v-.448h-.796V34.8h.803v-2.07c0-.61.263-.95.788-.95.172-.002.343.03.502.093l.248-.756a1.71 1.71 0 00-.573-.101h.001zm-6.853.092H18.88v-1.12h-.812v1.12h-.748v.733h.748v1.684c0 .857.333 1.367 1.283 1.367.348 0 .75-.108 1.005-.285l-.232-.688c-.24.14-.503.21-.711.21-.402 0-.533-.248-.533-.619v-1.668h1.313v-.734zM8.187 34.8v-2.317c0-.872-.557-1.46-1.453-1.467-.472-.008-.958.139-1.298.657-.255-.41-.656-.657-1.22-.657-.395 0-.78.116-1.082.548v-.456H2.33V34.8h.81v-2.047c0-.64.356-.981.905-.981.533 0 .803.348.803.973V34.8h.811v-2.047c0-.641.371-.982.904-.982.548 0 .81.348.81.974v2.054l.814.002z" fill="#fff"/><path d="M44.571 22.521v-.54h-.14l-.163.37-.162-.37h-.141v.54h.1v-.407l.152.351h.103l.152-.352v.408h.1zm-.892 0v-.447h.18v-.091h-.46v.09h.18v.448h.099z" fill="#F79410"/><path d="M28.588 24.836h-12.17V2.973h12.17v21.863z" fill="#FF5F00"/><path d="M17.19 13.904a13.88 13.88 0 015.312-10.932A13.85 13.85 0 0013.907 0C6.227 0 0 6.225 0 13.904c0 7.68 6.226 13.905 13.907 13.905a13.85 13.85 0 008.595-2.973 13.88 13.88 0 01-5.312-10.932z" fill="#EB001B"/><path d="M45.006 13.905c0 7.68-6.227 13.905-13.907 13.905a13.854 13.854 0 01-8.597-2.973 13.878 13.878 0 005.313-10.932c0-4.435-2.077-8.386-5.313-10.932A13.855 13.855 0 0131.098 0c7.681 0 13.907 6.225 13.907 13.905" fill="#F79E1B"/></g><defs><clipPath id="clip0"><path fill="#fff" d="M0 0h45v35H0z"/></clipPath></defs></svg>