<svg width="72" height="24" viewBox="0 0 72 24" fill="none" xmlns="http://www.w3.org/2000/svg">
<path d="M25.3391 23.5653H31.2133L34.8853 0.450744H29.0104L25.3391 23.5653Z" fill="white"/>
<path d="M14.7972 16.3491L20.3974 0.450744H26.7194L17.3737 23.5659H11.2532L6.14972 3.48413C2.83631 1.44559 0.00512695 0.842128 0.00512695 0.842128L0.00528876 0.841546L0.00512695 0.841511L0.113764 0.450127H9.372C11.9195 0.450127 12.1585 2.53133 12.1585 2.53133L14.1351 12.9262C14.1351 12.9262 14.135 12.9259 14.1348 12.9252L14.1351 12.9268L14.1345 12.9256L14.7972 16.3491Z" fill="white"/>
<path fill-rule="evenodd" clip-rule="evenodd" d="M71.9948 23.5653H66.601L65.913 20.1319H58.4455L57.2209 23.5653H51.0974L59.8584 2.17271C59.8584 2.17271 60.3895 0.450126 62.57 0.450126H67.2921L71.9948 23.5653ZM63.2237 6.73886L60.1372 15.3889H64.96L63.2237 6.73886Z" fill="white"/>
<path d="M52.395 1.04555L51.5567 6.00927C49.043 4.59027 43.3221 4.25453 43.3215 6.86809C43.3215 7.90638 44.6159 8.62044 46.176 9.48108C48.5421 10.7863 51.5193 12.4287 51.5193 16.0505C51.5193 21.8378 45.4719 23.9641 41.4632 23.9641C37.4557 23.9641 34.8327 22.6589 34.8327 22.6589L35.7061 17.4689C38.1112 19.4468 45.3988 20.0088 45.3988 16.8722C45.3988 15.5542 43.9642 14.7769 42.3007 13.8755C40.0053 12.6319 37.274 11.1521 37.274 7.68981C37.274 1.34295 44.1966 0.0377197 47.1117 0.0377197C49.8083 0.0377197 52.395 1.04555 52.395 1.04555Z" fill="white"/>
</svg>
