<svg width="74" height="33" fill="none" xmlns="http://www.w3.org/2000/svg"><path d="M28.096.423l-9.688 23.145h-6.321L7.319 5.096c-.289-1.135-.54-1.553-1.42-2.033C4.461 2.281 2.087 1.55 0 1.094L.14.423h10.177c1.295 0 2.461.863 2.757 2.358l2.52 13.395L21.814.423h6.282zm8.545 0l-4.944 23.145h-5.98L30.66.423h5.98zM52.86 16.01c.026-6.107-8.432-6.446-8.377-9.175.02-.83.81-1.713 2.537-1.939.855-.11 3.22-.199 5.897 1.036l1.047-4.91C52.527.502 50.675 0 48.372 0c-5.91 0-10.07 3.144-10.102 7.65-.04 3.333 2.97 5.19 5.232 6.3 2.331 1.135 3.113 1.863 3.102 2.876-.017 1.553-1.861 2.24-3.576 2.266-3.008.048-4.751-.814-6.142-1.462l-1.085 5.073c1.399.643 3.977 1.2 6.648 1.229 6.284 0 10.394-3.108 10.413-7.92zm15.61 7.557H74L69.17.423h-5.101a2.72 2.72 0 00-2.547 1.696L52.55 23.57h6.28l1.245-3.458h7.672l.724 3.457zm-6.675-8.2l3.15-8.692 1.808 8.692h-4.958zM44.294 29.939h-2.43v2.265h2.718v.68h-3.537v-6.282h3.398v.681h-2.579v1.985h2.43v.671zm1.543-3.672h.819v6.618h-.819v-6.618zm2.885 4.511c.018 1.11.716 1.566 1.544 1.566.587 0 .95-.102 1.248-.233l.149.588c-.289.13-.791.288-1.508.288-1.387 0-2.215-.922-2.215-2.283 0-1.361.8-2.424 2.113-2.424 1.48 0 1.861 1.287 1.861 2.116 0 .168-.01.289-.028.382h-3.164zm2.4-.587c.01-.513-.213-1.324-1.135-1.324-.837 0-1.191.756-1.257 1.324h2.393zm5.248 2.535c-.214.103-.688.261-1.293.261-1.36 0-2.243-.922-2.243-2.302 0-1.389.949-2.405 2.42-2.405.483 0 .911.121 1.135.243l-.186.624a2.005 2.005 0 00-.95-.215c-1.033 0-1.59.774-1.59 1.707 0 1.043.67 1.686 1.563 1.686.465 0 .772-.111 1.005-.214l.14.615zm2.298-5.434v1.081h1.172v.624h-1.172v2.433c0 .56.158.877.614.877.223 0 .354-.019.475-.056l.037.625c-.158.055-.41.111-.726.111-.382 0-.689-.13-.884-.344-.223-.252-.316-.653-.316-1.184v-2.462h-.699v-.624h.699v-.838l.8-.243zm2.316 2.489c0-.531-.01-.988-.037-1.408h.717l.037.895h.027c.206-.606.708-.988 1.257-.988.084 0 .15.01.224.019v.774c-.084-.02-.168-.02-.28-.02-.576 0-.987.43-1.098 1.045a2.48 2.48 0 00-.028.382v2.405h-.819V29.78zm7.259.81c0 1.67-1.164 2.396-2.244 2.396-1.21 0-2.158-.895-2.158-2.32 0-1.501.995-2.387 2.233-2.387 1.294 0 2.169.941 2.169 2.312zm-3.565.048c0 .988.558 1.733 1.359 1.733.782 0 1.368-.736 1.368-1.752 0-.765-.382-1.725-1.35-1.725-.958 0-1.377.895-1.377 1.744zm4.82-1.045c0-.475-.01-.848-.038-1.22h.726l.047.745h.018c.224-.42.745-.839 1.49-.839.623 0 1.591.373 1.591 1.92v2.685h-.819v-2.6c0-.728-.27-1.334-1.042-1.334-.53 0-.95.383-1.098.84a1.165 1.165 0 00-.056.381v2.713h-.82v-3.29z" fill="#fff"/></svg>