<svg width="24" height="24" viewBox="0 0 24 24" fill="none" xmlns="http://www.w3.org/2000/svg">
<path d="M1 22C0.723858 22 0.5 22.2239 0.5 22.5C0.5 22.7761 0.723858 23 1 23V22ZM23 23C23.2761 23 23.5 22.7761 23.5 22.5C23.5 22.2239 23.2761 22 23 22V23ZM1 1C0.723858 1 0.5 1.22386 0.5 1.5C0.5 1.77614 0.723858 2 1 2V1ZM23 2C23.2761 2 23.5 1.77614 23.5 1.5C23.5 1.22386 23.2761 1 23 1V2ZM7.5 9.5C7.5 9.22386 7.27614 9 7 9C6.72386 9 6.5 9.22386 6.5 9.5H7.5ZM7 14.5L6.64645 14.8536C6.84171 15.0488 7.15829 15.0488 7.35355 14.8536L7 14.5ZM5.85355 12.6464C5.65829 12.4512 5.34171 12.4512 5.14645 12.6464C4.95118 12.8417 4.95118 13.1583 5.14645 13.3536L5.85355 12.6464ZM8.85355 13.3536C9.04882 13.1583 9.04882 12.8417 8.85355 12.6464C8.65829 12.4512 8.34171 12.4512 8.14645 12.6464L8.85355 13.3536ZM16.5 14.5C16.5 14.7761 16.7239 15 17 15C17.2761 15 17.5 14.7761 17.5 14.5H16.5ZM17 9.5L17.3536 9.14645C17.1583 8.95118 16.8417 8.95118 16.6464 9.14645L17 9.5ZM15.1464 10.6464C14.9512 10.8417 14.9512 11.1583 15.1464 11.3536C15.3417 11.5488 15.6583 11.5488 15.8536 11.3536L15.1464 10.6464ZM18.1464 11.3536C18.3417 11.5488 18.6583 11.5488 18.8536 11.3536C19.0488 11.1583 19.0488 10.8417 18.8536 10.6464L18.1464 11.3536ZM2 1.5V22.5H3V1.5H2ZM22 22.5V1.5H21V22.5H22ZM2.5 22H1V23H2.5V22ZM21.5 23H23V22H21.5V23ZM2.5 1H1V2H2.5V1ZM21.5 2H23V1H21.5V2ZM21.5 1H12V2H21.5V1ZM12 1H2.5V2H12V1ZM2.5 23H12V22H2.5V23ZM12 23H21.5V22H12V23ZM11.5 1.5V22.5H12.5V1.5H11.5ZM6.5 9.5V14.5H7.5V9.5H6.5ZM7.35355 14.1464L5.85355 12.6464L5.14645 13.3536L6.64645 14.8536L7.35355 14.1464ZM7.35355 14.8536L8.85355 13.3536L8.14645 12.6464L6.64645 14.1464L7.35355 14.8536ZM17.5 14.5V9.5H16.5V14.5H17.5ZM16.6464 9.14645L15.1464 10.6464L15.8536 11.3536L17.3536 9.85355L16.6464 9.14645ZM16.6464 9.85355L18.1464 11.3536L18.8536 10.6464L17.3536 9.14645L16.6464 9.85355Z" fill="#2C3F58"/>
</svg>
