<svg width="24" height="24" viewBox="0 0 24 24" fill="none" xmlns="http://www.w3.org/2000/svg">
<path d="M0.5 20C0.223858 20 0 20.2239 0 20.5C0 20.7761 0.223858 21 0.5 21V20ZM15.5 21C15.7761 21 16 20.7761 16 20.5C16 20.2239 15.7761 20 15.5 20V21ZM1.5 17C1.22386 17 1 17.2239 1 17.5C1 17.7761 1.22386 18 1.5 18V17ZM16 17.5L16.2774 17.084C16.1952 17.0292 16.0987 17 16 17V17.5ZM19 19.5L18.7227 19.916C18.8361 19.9916 18.9754 20.0177 19.1085 19.9881L19 19.5ZM23.6085 18.9881C23.878 18.9282 24.048 18.6611 23.9881 18.3915C23.9282 18.122 23.6611 17.952 23.3915 18.0119L23.6085 18.9881ZM4.55279 14.7764C4.42929 15.0234 4.5294 15.3237 4.77639 15.4472C5.02338 15.5707 5.32372 15.4706 5.44721 15.2236L4.55279 14.7764ZM7.5 10L7.75194 9.56811C7.63256 9.49848 7.48969 9.48136 7.35725 9.52081C7.2248 9.56027 7.11459 9.65278 7.05279 9.77639L7.5 10ZM13.2481 13.9319C13.4866 14.071 13.7927 13.9905 13.9319 13.7519C14.071 13.5134 13.9905 13.2073 13.7519 13.0681L13.2481 13.9319ZM0.5 21H15.5V20H0.5V21ZM1.5 18H16V17H1.5V18ZM15.7226 17.916L18.7227 19.916L19.2773 19.084L16.2774 17.084L15.7226 17.916ZM19.1085 19.9881L23.6085 18.9881L23.3915 18.0119L18.8915 19.0119L19.1085 19.9881ZM5.44721 15.2236L7.94721 10.2236L7.05279 9.77639L4.55279 14.7764L5.44721 15.2236ZM7.24806 10.4319L13.2481 13.9319L13.7519 13.0681L7.75194 9.56811L7.24806 10.4319Z" fill="#2C3F58"/>
<circle cx="11" cy="6.5" r="2.5" stroke="#2C3F58"/>
<circle cx="20" cy="14.5" r="2.5" stroke="#2C3F58"/>
</svg>
