<svg width="24" height="24" viewBox="0 0 24 24" fill="none" xmlns="http://www.w3.org/2000/svg">
<path d="M3.5 2.5V2C3.22386 2 3 2.22386 3 2.5H3.5ZM3.5 4.5H3C3 4.77614 3.22386 5 3.5 5V4.5ZM8.5 4.5V5C8.77614 5 9 4.77614 9 4.5H8.5ZM8.5 2.5H9C9 2.22386 8.77614 2 8.5 2V2.5ZM9.5 10C9.77614 10 10 9.77614 10 9.5C10 9.22386 9.77614 9 9.5 9V10ZM14.5 9C14.2239 9 14 9.22386 14 9.5C14 9.77614 14.2239 10 14.5 10V9ZM11.5 9C11.2239 9 11 9.22386 11 9.5C11 9.77614 11.2239 10 11.5 10V9ZM12.5 10C12.7761 10 13 9.77614 13 9.5C13 9.22386 12.7761 9 12.5 9V10ZM10 12.7465L9.87292 12.2629L10 12.7465ZM9.01917 14.3629C8.94344 14.6285 9.09734 14.9051 9.3629 14.9808C9.62845 15.0566 9.90512 14.9027 9.98083 14.6371L9.01917 14.3629ZM14 12.7465L14.1271 12.2629L14 12.7465ZM13.0192 14.3629C12.9434 14.6285 13.0973 14.9051 13.3629 14.9808C13.6285 15.0566 13.9051 14.9027 13.9808 14.6371L13.0192 14.3629ZM11.0149 14.3787C10.948 14.6466 11.1108 14.9181 11.3787 14.9851C11.6466 15.052 11.9181 14.8892 11.9851 14.6213L11.0149 14.3787ZM1.5 24H22.5V23H1.5V24ZM22.5 0H1.5V1H22.5V0ZM0 1.5V6.5H1V1.5H0ZM0 6.5V22.5H1V6.5H0ZM24 22.5V6.5H23V22.5H24ZM24 6.5V1.5H23V6.5H24ZM0.5 7H23.5V6H0.5V7ZM3 2.5V4.5H4V2.5H3ZM3.5 5H8.5V4H3.5V5ZM9 4.5V2.5H8V4.5H9ZM8.5 2H3.5V3H8.5V2ZM3 11.5V18.5H4V11.5H3ZM5.5 21H18.5V20H5.5V21ZM21 18.5V11.5H20V18.5H21ZM9.5 9H5.5V10H9.5V9ZM18.5 9H14.5V10H18.5V9ZM11.5 10H12.5V9H11.5V10ZM7.5 18H16.5V17H7.5V18ZM12 12C11.2202 12 10.5107 12.0953 9.87292 12.2629L10.1271 13.23C10.6782 13.0852 11.3021 13 12 13V12ZM9.87292 12.2629C7.82184 12.8019 6.51806 14.0899 6.03639 15.3182C5.79882 15.924 5.74222 16.5729 5.98351 17.1052C6.24335 17.6785 6.79476 18 7.5 18V17C7.12316 17 6.96718 16.8532 6.89431 16.6924C6.8029 16.4907 6.78827 16.14 6.96737 15.6833C7.31903 14.7865 8.34733 13.6977 10.1271 13.23L9.87292 12.2629ZM9.51917 12.6093L9.01917 14.3629L9.98083 14.6371L10.4808 12.8836L9.51917 12.6093ZM16.5 18C17.2052 18 17.7567 17.6785 18.0165 17.1052C18.2578 16.5729 18.2012 15.924 17.9636 15.3182C17.4819 14.0899 16.1782 12.8019 14.1271 12.2629L13.8729 13.23C15.6527 13.6977 16.681 14.7865 17.0326 15.6833C17.2117 16.14 17.1971 16.4907 17.1057 16.6924C17.0328 16.8532 16.8768 17 16.5 17V18ZM14.1271 12.2629C13.4893 12.0953 12.7798 12 12 12V13C12.6979 13 13.3218 13.0852 13.8729 13.23L14.1271 12.2629ZM13.5192 12.6093L13.0192 14.3629L13.9808 14.6371L14.4808 12.8836L13.5192 12.6093ZM11.5149 12.3787L11.0149 14.3787L11.9851 14.6213L12.4851 12.6213L11.5149 12.3787ZM22.5 1C22.7761 1 23 1.22386 23 1.5H24C24 0.671573 23.3284 0 22.5 0V1ZM21 11.5C21 10.1193 19.8807 9 18.5 9V10C19.3284 10 20 10.6716 20 11.5H21ZM22.5 24C23.3284 24 24 23.3284 24 22.5H23C23 22.7761 22.7761 23 22.5 23V24ZM18.5 21C19.8807 21 21 19.8807 21 18.5H20C20 19.3284 19.3284 20 18.5 20V21ZM1.5 23C1.22386 23 1 22.7761 1 22.5H0C0 23.3284 0.671573 24 1.5 24V23ZM4 11.5C4 10.6716 4.67157 10 5.5 10V9C4.11929 9 3 10.1193 3 11.5H4ZM3 18.5C3 19.8807 4.11929 21 5.5 21V20C4.67157 20 4 19.3284 4 18.5H3ZM1.5 0C0.671572 0 0 0.671573 0 1.5H1C1 1.22386 1.22386 1 1.5 1V0Z" fill="#2C3F58"/>
<circle cx="12" cy="3.5" r="1" stroke="#2C3F58"/>
<circle cx="16" cy="3.5" r="1" stroke="#2C3F58"/>
<circle cx="20" cy="3.5" r="1" stroke="#2C3F58"/>
</svg>
