<svg width="24" height="24" viewBox="0 0 24 24" fill="none" xmlns="http://www.w3.org/2000/svg">
<path d="M17.5 4.5H18C18 4.25117 17.817 4.04021 17.5707 4.00503L17.5 4.5ZM17.5 12.5L17.5707 12.995C17.817 12.9598 18 12.7488 18 12.5H17.5ZM22.5 6C22.2239 6 22 6.22386 22 6.5C22 6.77614 22.2239 7 22.5 7V6ZM23.5 7C23.7761 7 24 6.77614 24 6.5C24 6.22386 23.7761 6 23.5 6V7ZM22.5 8C22.2239 8 22 8.22386 22 8.5C22 8.77614 22.2239 9 22.5 9V8ZM23.5 9C23.7761 9 24 8.77614 24 8.5C24 8.22386 23.7761 8 23.5 8V9ZM22.5 10C22.2239 10 22 10.2239 22 10.5C22 10.7761 22.2239 11 22.5 11V10ZM23.5 11C23.7761 11 24 10.7761 24 10.5C24 10.2239 23.7761 10 23.5 10V11ZM7.98995 13.8586L8.06066 14.3536L7.98995 13.8586ZM6 13.5C3.23858 13.5 1 11.2614 1 8.5H0C0 11.8137 2.68629 14.5 6 14.5V13.5ZM1 8.5C1 5.73858 3.23858 3.5 6 3.5V2.5C2.68629 2.5 0 5.18629 0 8.5H1ZM7.91924 3.6364L17.4293 4.99497L17.5707 4.00503L8.06066 2.64645L7.91924 3.6364ZM17.4293 12.005L7.91924 13.3636L8.06066 14.3536L17.5707 12.995L17.4293 12.005ZM17 4.5V5.5H18V4.5H17ZM17.5 6H19.5V5H17.5V6ZM20 6.5V10.5H21V6.5H20ZM17 5.5V11.5H18V5.5H17ZM17 11.5V12.5H18V11.5H17ZM19.5 11H17.5V12H19.5V11ZM22.5 7H23.5V6H22.5V7ZM22.5 9H23.5V8H22.5V9ZM22.5 11H23.5V10H22.5V11ZM20 10.5C20 10.7761 19.7761 11 19.5 11V12C20.3284 12 21 11.3284 21 10.5H20ZM19.5 6C19.7761 6 20 6.22386 20 6.5H21C21 5.67157 20.3284 5 19.5 5V6ZM7.91924 13.3636C7.28353 13.4544 6.64217 13.5 6 13.5V14.5C6.68949 14.5 7.3781 14.4511 8.06066 14.3536L7.91924 13.3636ZM6 3.5C6.64217 3.5 7.28352 3.54558 7.91924 3.6364L8.06066 2.64645C7.3781 2.54894 6.68949 2.5 6 2.5V3.5Z" fill="#2C3F58"/>
<circle cx="6" cy="8.5" r="2.5" stroke="#2C3F58"/>
<path d="M3.48296 13.1647C3.41149 12.8979 3.13732 12.7396 2.87059 12.8111C2.60386 12.8826 2.44557 13.1567 2.51704 13.4235L3.48296 13.1647ZM9.3844 15.8706C9.31293 15.6039 9.03876 15.4456 8.77202 15.517C8.50529 15.5885 8.347 15.8627 8.41847 16.1294L9.3844 15.8706ZM5.16529 19.4432L3.48296 13.1647L2.51704 13.4235L4.19936 19.702L5.16529 19.4432ZM8.41847 16.1294L9.02899 18.4079L9.99492 18.1491L9.3844 15.8706L8.41847 16.1294ZM7.61478 20.8574C6.54784 21.1433 5.45117 20.5101 5.16529 19.4432L4.19936 19.702C4.62819 21.3024 6.2732 22.2521 7.8736 21.8233L7.61478 20.8574ZM7.8736 21.8233C9.47399 21.3945 10.4237 19.7495 9.99492 18.1491L9.02899 18.4079C9.31487 19.4748 8.68171 20.5715 7.61478 20.8574L7.8736 21.8233Z" fill="#2C3F58"/>
</svg>
