<svg width="24" height="24" viewBox="0 0 24 24" fill="none" xmlns="http://www.w3.org/2000/svg">
<path d="M1.5 12L1 11.9888V12H1.5ZM9.5 7.5V7C9.22386 7 9 7.22386 9 7.5H9.5ZM9 16.5C9 16.7761 9.22386 17 9.5 17C9.77614 17 10 16.7761 10 16.5H9ZM9.5 8H12.5V7H9.5V8ZM9 7.5V12.5H10V7.5H9ZM9 12.5V16.5H10V12.5H9ZM12.5 12H9.5V13H12.5V12ZM1.99988 12.0112C2.00678 11.7017 2.00542 7.86171 2.00278 4.50249L1.00278 4.50327C1.00543 7.87551 1.00669 11.6948 1.00012 11.9888L1.99988 12.0112ZM4.50319 2H12V1H4.50319V2ZM19.5 1H12V2H19.5V1ZM22 4.5V12H23V4.5H22ZM22 12V19.5H23V12H22ZM19.5 22H12V23H19.5V22ZM2 19.5V12H1V19.5H2ZM12 22H4.5V23H12V22ZM1 19.5C1 21.433 2.567 23 4.5 23V22C3.11929 22 2 20.8807 2 19.5H1ZM19.5 2C20.8807 2 22 3.11929 22 4.5H23C23 2.567 21.433 1 19.5 1V2ZM2.00278 4.50249C2.00169 3.12066 3.12141 2 4.50319 2V1C2.56877 1 1.00126 2.5689 1.00278 4.50327L2.00278 4.50249ZM14.5 10C14.5 11.1046 13.6046 12 12.5 12V13C14.1569 13 15.5 11.6569 15.5 10H14.5ZM22 19.5C22 20.8807 20.8807 22 19.5 22V23C21.433 23 23 21.433 23 19.5H22ZM12.5 8C13.6046 8 14.5 8.89543 14.5 10H15.5C15.5 8.34315 14.1569 7 12.5 7V8Z" fill="#2C3F58"/>
</svg>
