<svg width="24" height="24" viewBox="0 0 24 24" fill="none" xmlns="http://www.w3.org/2000/svg">
<path d="M11.5 16V14.5H18.5V16C18.5 17.933 16.933 19.5 15 19.5C13.067 19.5 11.5 17.933 11.5 16Z" stroke="#2C3F58" stroke-linejoin="round"/>
<path d="M21.5 22.5V23C21.6844 23 21.8538 22.8985 21.9408 22.7359C22.0278 22.5734 22.0183 22.3761 21.916 22.2227L21.5 22.5ZM19.5 19.5L19.916 19.2227C19.8233 19.0836 19.6672 19 19.5 19V19.5ZM21.5 5.5V6C21.7761 6 22 5.77614 22 5.5H21.5ZM14.5 11.5C14.5 11.7761 14.7239 12 15 12C15.2761 12 15.5 11.7761 15.5 11.5H14.5ZM20.5 1H3.5V2H20.5V1ZM3.5 23H21.5V22H3.5V23ZM21.916 22.2227L19.916 19.2227L19.084 19.7773L21.084 22.7773L21.916 22.2227ZM2 19.5V21.5H3V19.5H2ZM19.5 19H8.5V20H19.5V19ZM8.5 19H2.5V20H8.5V19ZM9 19.5V5.5H8V19.5H9ZM2 2.5V5.5H3V2.5H2ZM2 5.5V19.5H3V5.5H2ZM8.5 5H2.5V6H8.5V5ZM22 5.5V2.5H21V5.5H22ZM17 6H21.5V5H17V6ZM8.5 6H13V5H8.5V6ZM13 6H17V5H13V6ZM13.5 9.5V8.5H12.5V9.5H13.5ZM13.5 8.5V5.5H12.5V8.5H13.5ZM16.5 5.5V8.5H17.5V5.5H16.5ZM16.5 8.5V9.5H17.5V8.5H16.5ZM13 9H17V8H13V9ZM16 10H15V11H16V10ZM15 10H14V11H15V10ZM14.5 10.5V11.5H15.5V10.5H14.5ZM12.5 9.5C12.5 10.3284 13.1716 11 14 11V10C13.7239 10 13.5 9.77614 13.5 9.5H12.5ZM3.5 22C3.22386 22 3 21.7761 3 21.5H2C2 22.3284 2.67157 23 3.5 23V22ZM16.5 9.5C16.5 9.77614 16.2761 10 16 10V11C16.8284 11 17.5 10.3284 17.5 9.5H16.5ZM3.5 1C2.67157 1 2 1.67157 2 2.5H3C3 2.22386 3.22386 2 3.5 2V1ZM20.5 2C20.7761 2 21 2.22386 21 2.5H22C22 1.67157 21.3284 1 20.5 1V2Z" fill="#2C3F58"/>
</svg>
