<svg width="24" height="24" viewBox="0 0 24 24" fill="none" xmlns="http://www.w3.org/2000/svg">
<path d="M7 15.5C7 15.7761 7.22386 16 7.5 16C7.77614 16 8 15.7761 8 15.5H7ZM11 4C11 4.27614 11.2239 4.5 11.5 4.5C11.7761 4.5 12 4.27614 12 4H11ZM16 15.5C16 15.7761 16.2239 16 16.5 16C16.7761 16 17 15.7761 17 15.5H16ZM20 4C20 4.27614 20.2239 4.5 20.5 4.5C20.7761 4.5 21 4.27614 21 4H20ZM2.5 17.5C2.22386 17.5 2 17.7239 2 18C2 18.2761 2.22386 18.5 2.5 18.5V17.5ZM21.5 18.5C21.7761 18.5 22 18.2761 22 18C22 17.7239 21.7761 17.5 21.5 17.5V18.5ZM6 19.5L6.02936 19.9991L6 19.5ZM18 19.5L17.9706 19.9991L18 19.5ZM2.5 20.5C2.22386 20.5 2 20.7239 2 21C2 21.2761 2.22386 21.5 2.5 21.5V20.5ZM6 22.5L5.97064 22.0009L6 22.5ZM18 22.5L17.9706 22.9991L18 22.5ZM21.5 21.5C21.7761 21.5 22 21.2761 22 21C22 20.7239 21.7761 20.5 21.5 20.5V21.5ZM11 3.5V4H12V3.5H11ZM20 3.5V4H21V3.5H20ZM18.5 2C19.3284 2 20 2.67157 20 3.5H21C21 2.11929 19.8807 1 18.5 1V2ZM17 3.5C17 2.67157 17.6716 2 18.5 2V1C17.1193 1 16 2.11929 16 3.5H17ZM8 8.5V3.5H7V8.5H8ZM17 8.5V3.5H16V8.5H17ZM7.5 9H16.5V8H7.5V9ZM8 15.5V12.5H7V15.5H8ZM8 12.5V8.5H7V12.5H8ZM17 15.5V12.5H16V15.5H17ZM17 12.5V8.5H16V12.5H17ZM7.5 13H16.5V12H7.5V13ZM2.5 18.5C3.05651 18.5 3.43195 18.78 3.95105 19.1791C4.44347 19.5577 5.08032 20.055 6.02936 19.9991L5.97064 19.0009C5.43517 19.0324 5.07202 18.7796 4.56057 18.3864C4.0758 18.0136 3.44349 17.5 2.5 17.5V18.5ZM17.9706 19.9991C18.9197 20.055 19.5565 19.5577 20.049 19.1791C20.5681 18.78 20.9435 18.5 21.5 18.5V17.5C20.5565 17.5 19.9242 18.0136 19.4394 18.3864C18.928 18.7796 18.5648 19.0324 18.0294 19.0009L17.9706 19.9991ZM6.02936 19.9991C6.87659 19.9493 7.42114 19.4494 7.82608 19.0995C8.25771 18.7265 8.55161 18.5 9 18.5V17.5C8.13854 17.5 7.58623 17.9851 7.17223 18.3428C6.73153 18.7237 6.431 18.9738 5.97064 19.0009L6.02936 19.9991ZM9 18.5C9.44039 18.5 9.72924 18.7345 10.1681 19.124C10.5743 19.4845 11.1305 20 12 20V19C11.5596 19 11.2708 18.7655 10.8319 18.376C10.4257 18.0155 9.86947 17.5 9 17.5V18.5ZM12 20C12.8695 20 13.4257 19.4845 13.8319 19.124C14.2708 18.7345 14.5596 18.5 15 18.5V17.5C14.1305 17.5 13.5743 18.0155 13.1681 18.376C12.7292 18.7655 12.4404 19 12 19V20ZM15 18.5C15.4484 18.5 15.7423 18.7265 16.1739 19.0995C16.5789 19.4494 17.1234 19.9493 17.9706 19.9991L18.0294 19.0009C17.569 18.9738 17.2685 18.7237 16.8278 18.3428C16.4138 17.9851 15.8615 17.5 15 17.5V18.5ZM2.5 21.5C3.05651 21.5 3.43195 21.78 3.95105 22.1791C4.44347 22.5577 5.08032 23.055 6.02936 22.9991L5.97064 22.0009C5.43517 22.0324 5.07202 21.7796 4.56057 21.3864C4.0758 21.0136 3.44349 20.5 2.5 20.5V21.5ZM17.9706 22.9991C18.9197 23.055 19.5565 22.5577 20.049 22.1791C20.5681 21.78 20.9435 21.5 21.5 21.5V20.5C20.5565 20.5 19.9242 21.0136 19.4394 21.3864C18.928 21.7796 18.5648 22.0324 18.0294 22.0009L17.9706 22.9991ZM6.02936 22.9991C6.87659 22.9493 7.42114 22.4494 7.82608 22.0995C8.25771 21.7265 8.55161 21.5 9 21.5V20.5C8.13854 20.5 7.58623 20.9851 7.17223 21.3428C6.73153 21.7237 6.431 21.9738 5.97064 22.0009L6.02936 22.9991ZM9 21.5C9.44039 21.5 9.72924 21.7345 10.1681 22.124C10.5743 22.4845 11.1305 23 12 23V22C11.5596 22 11.2708 21.7655 10.8319 21.376C10.4257 21.0155 9.86947 20.5 9 20.5V21.5ZM12 23C12.8695 23 13.4257 22.4845 13.8319 22.124C14.2708 21.7345 14.5596 21.5 15 21.5V20.5C14.1305 20.5 13.5743 21.0155 13.1681 21.376C12.7292 21.7655 12.4404 22 12 22V23ZM15 21.5C15.4484 21.5 15.7423 21.7265 16.1739 22.0995C16.5789 22.4494 17.1234 22.9493 17.9706 22.9991L18.0294 22.0009C17.569 21.9738 17.2685 21.7237 16.8278 21.3428C16.4138 20.9851 15.8615 20.5 15 20.5V21.5ZM9.5 2C10.3284 2 11 2.67157 11 3.5H12C12 2.11929 10.8807 1 9.5 1V2ZM9.5 1C8.11929 1 7 2.11929 7 3.5H8C8 2.67157 8.67157 2 9.5 2V1Z" fill="#2C3F58"/>
</svg>
