<svg width="24" height="24" viewBox="0 0 24 24" fill="none" xmlns="http://www.w3.org/2000/svg">
<path d="M2.5 8.5V8C2.22386 8 2 8.22386 2 8.5H2.5ZM21.5 8.5H22C22 8.22386 21.7761 8 21.5 8V8.5ZM7.5 5C7.22386 5 7 5.22386 7 5.5C7 5.77614 7.22386 6 7.5 6V5ZM16.5 6C16.7761 6 17 5.77614 17 5.5C17 5.22386 16.7761 5 16.5 5V6ZM21.5 5C21.7761 5 22 4.77614 22 4.5C22 4.22386 21.7761 4 21.5 4V5ZM20.5 4C20.2239 4 20 4.22386 20 4.5C20 4.77614 20.2239 5 20.5 5V4ZM12.5 16C12.5 15.7239 12.2761 15.5 12 15.5C11.7239 15.5 11.5 15.7239 11.5 16H12.5ZM11.5 20.5C11.5 20.7761 11.7239 21 12 21C12.2761 21 12.5 20.7761 12.5 20.5H11.5ZM4.5 16C4.5 15.7239 4.27614 15.5 4 15.5C3.72386 15.5 3.5 15.7239 3.5 16H4.5ZM1.27639 20.0528C1.0294 20.1763 0.929292 20.4766 1.05279 20.7236C1.17628 20.9706 1.47662 21.0707 1.72361 20.9472L1.27639 20.0528ZM20.5 16C20.5 15.7239 20.2761 15.5 20 15.5C19.7239 15.5 19.5 15.7239 19.5 16H20.5ZM22.2764 20.9472C22.5234 21.0707 22.8237 20.9706 22.9472 20.7236C23.0707 20.4766 22.9706 20.1763 22.7236 20.0528L22.2764 20.9472ZM8.5 16C8.5 15.7239 8.27614 15.5 8 15.5C7.72386 15.5 7.5 15.7239 7.5 16H8.5ZM7.5 20.5C7.5 20.7761 7.72386 21 8 21C8.27614 21 8.5 20.7761 8.5 20.5H7.5ZM17 16C17 15.7239 16.7761 15.5 16.5 15.5C16.2239 15.5 16 15.7239 16 16H17ZM16 20.5C16 20.7761 16.2239 21 16.5 21C16.7761 21 17 20.7761 17 20.5H16ZM1.5 3H22.5V2H1.5V3ZM23 3.5V11.5H24V3.5H23ZM1 11.5V3.5H0V11.5H1ZM2.5 12H1.5V13H2.5V12ZM2.5 9H21.5V8H2.5V9ZM22.5 12H21.5V13H22.5V12ZM21.5 12H2.5V13H21.5V12ZM3 12.5V10.5H2V12.5H3ZM3 10.5V8.5H2V10.5H3ZM21 8.5V10.5H22V8.5H21ZM21 10.5V12.5H22V10.5H21ZM2.5 11H21.5V10H2.5V11ZM7.5 6H16.5V5H7.5V6ZM21.5 4H20.5V5H21.5V4ZM11.5 16V20.5H12.5V16H11.5ZM3.5 16C3.5 16.9645 3.37817 17.7506 3.05279 18.4014C2.73355 19.0399 2.19552 19.5932 1.27639 20.0528L1.72361 20.9472C2.80448 20.4068 3.51645 19.7101 3.94721 18.8486C4.37183 17.9994 4.5 17.0355 4.5 16H3.5ZM19.5 16C19.5 17.0355 19.6282 17.9994 20.0528 18.8486C20.4836 19.7101 21.1955 20.4068 22.2764 20.9472L22.7236 20.0528C21.8045 19.5932 21.2664 19.0399 20.9472 18.4014C20.6218 17.7506 20.5 16.9645 20.5 16H19.5ZM7.5 16V20.5H8.5V16H7.5ZM16 16V20.5H17V16H16ZM0 11.5C0 12.3284 0.671573 13 1.5 13V12C1.22386 12 1 11.7761 1 11.5H0ZM23 11.5C23 11.7761 22.7761 12 22.5 12V13C23.3284 13 24 12.3284 24 11.5H23ZM22.5 3C22.7761 3 23 3.22386 23 3.5H24C24 2.67157 23.3284 2 22.5 2V3ZM1.5 2C0.671573 2 0 2.67157 0 3.5H1C1 3.22386 1.22386 3 1.5 3V2Z" fill="#2C3F58"/>
</svg>
