<svg width="24" height="24" viewBox="0 0 24 24" fill="none" xmlns="http://www.w3.org/2000/svg">
<path d="M6.5 13.5V13C6.22386 13 6 13.2239 6 13.5H6.5ZM17.5 10.5V11C17.7761 11 18 10.7761 18 10.5H17.5ZM6 11.5C6 11.7761 6.22386 12 6.5 12C6.77614 12 7 11.7761 7 11.5H6ZM18 12.5C18 12.2239 17.7761 12 17.5 12C17.2239 12 17 12.2239 17 12.5H18ZM5.5 18H4.5V19H5.5V18ZM4.5 6H5.5V5H4.5V6ZM4 7.5V6.5H3V7.5H4ZM3.5 7H1.5V8H3.5V7ZM4 17.5V16.5H3V17.5H4ZM4 16.5V7.5H3V16.5H4ZM1.5 17H3.5V16H1.5V17ZM0 8.5V10.5H1V8.5H0ZM0 10.5V13.5H1V10.5H0ZM0 13.5V15.5H1V13.5H0ZM6 6.5V10.5H7V6.5H6ZM6 13.5V17.5H7V13.5H6ZM21 7.5V6.5H20V7.5H21ZM20.5 8H22.5V7H20.5V8ZM21 17.5V16.5H20V17.5H21ZM21 16.5V7.5H20V16.5H21ZM22.5 16H20.5V17H22.5V16ZM23 10.5V13.5H24V10.5H23ZM17 6.5V10.5H18V6.5H17ZM17 13.5V17.5H18V13.5H17ZM6.5 11H17.5V10H6.5V11ZM17.5 13H6.5V14H17.5V13ZM23 13.5V15.5H24V13.5H23ZM23 8.5V10.5H24V8.5H23ZM18.5 6H19.5V5H18.5V6ZM18.5 19H19.5V18H18.5V19ZM6 10.5V11.5H7V10.5H6ZM17 12.5V13.5H18V12.5H17ZM18 6.5C18 6.22386 18.2239 6 18.5 6V5C17.6716 5 17 5.67157 17 6.5H18ZM20 17.5C20 17.7761 19.7761 18 19.5 18V19C20.3284 19 21 18.3284 21 17.5H20ZM22.5 17C23.3284 17 24 16.3284 24 15.5H23C23 15.7761 22.7761 16 22.5 16V17ZM1.5 16C1.22386 16 1 15.7761 1 15.5H0C0 16.3284 0.671573 17 1.5 17V16ZM22.5 8C22.7761 8 23 8.22386 23 8.5H24C24 7.67157 23.3284 7 22.5 7V8ZM4.5 5C3.67157 5 3 5.67157 3 6.5H4C4 6.22386 4.22386 6 4.5 6V5ZM21 6.5C21 5.67157 20.3284 5 19.5 5V6C19.7761 6 20 6.22386 20 6.5H21ZM4.5 18C4.22386 18 4 17.7761 4 17.5H3C3 18.3284 3.67157 19 4.5 19V18ZM5.5 19C6.32843 19 7 18.3284 7 17.5H6C6 17.7761 5.77614 18 5.5 18V19ZM1.5 7C0.671573 7 0 7.67157 0 8.5H1C1 8.22386 1.22386 8 1.5 8V7ZM17 17.5C17 18.3284 17.6716 19 18.5 19V18C18.2239 18 18 17.7761 18 17.5H17ZM5.5 6C5.77614 6 6 6.22386 6 6.5H7C7 5.67157 6.32843 5 5.5 5V6Z" fill="#2C3F58"/>
</svg>
