<svg width="24" height="24" viewBox="0 0 24 24" fill="none" xmlns="http://www.w3.org/2000/svg">
<path d="M19 2.5C18.7239 2.5 18.5 2.72386 18.5 3C18.5 3.27614 18.7239 3.5 19 3.5V2.5ZM19.5 3.5C19.7761 3.5 20 3.27614 20 3C20 2.72386 19.7761 2.5 19.5 2.5V3.5ZM4.5 2.5C4.22386 2.5 4 2.72386 4 3C4 3.27614 4.22386 3.5 4.5 3.5V2.5ZM8 3.5C8.27614 3.5 8.5 3.27614 8.5 3C8.5 2.72386 8.27614 2.5 8 2.5V3.5ZM16.5 2.5C16.2239 2.5 16 2.72386 16 3C16 3.27614 16.2239 3.5 16.5 3.5V2.5ZM17 3.5C17.2761 3.5 17.5 3.27614 17.5 3C17.5 2.72386 17.2761 2.5 17 2.5V3.5ZM3.5 24H20.5V23H3.5V24ZM20.5 0H3.5V1H20.5V0ZM2 1.5V5.5H3V1.5H2ZM2 5.5V22.5H3V5.5H2ZM22 22.5V5.5H21V22.5H22ZM22 5.5V1.5H21V5.5H22ZM2.5 6H21.5V5H2.5V6ZM19 3.5H19.5V2.5H19V3.5ZM4.5 3.5H8V2.5H4.5V3.5ZM16.5 3.5H17V2.5H16.5V3.5ZM20.5 1C20.7761 1 21 1.22386 21 1.5H22C22 0.671573 21.3284 0 20.5 0V1ZM20.5 24C21.3284 24 22 23.3284 22 22.5H21C21 22.7761 20.7761 23 20.5 23V24ZM3.5 23C3.22386 23 3 22.7761 3 22.5H2C2 23.3284 2.67157 24 3.5 24V23ZM3.5 0C2.67157 0 2 0.671573 2 1.5H3C3 1.22386 3.22386 1 3.5 1V0Z" fill="#2C3F58"/>
<path d="M17.811 13L18.2952 12.8754L17.811 13ZM17.811 16L18.2952 16.1246L17.811 16ZM19 15C19.2761 15 19.5 14.7761 19.5 14.5C19.5 14.2239 19.2761 14 19 14V15ZM12 20C8.96243 20 6.5 17.5376 6.5 14.5H5.5C5.5 18.0899 8.41015 21 12 21V20ZM6.5 14.5C6.5 11.4624 8.96243 9 12 9V8C8.41015 8 5.5 10.9101 5.5 14.5H6.5ZM12 9C14.5621 9 16.7162 10.7523 17.3268 13.1246L18.2952 12.8754C17.5737 10.072 15.0294 8 12 8V9ZM17.3268 13.1246C17.4398 13.5637 17.5 14.0244 17.5 14.5H18.5C18.5 13.9397 18.429 13.3952 18.2952 12.8754L17.3268 13.1246ZM17.5 14.5C17.5 14.9756 17.4398 15.4363 17.3268 15.8754L18.2952 16.1246C18.429 15.6048 18.5 15.0603 18.5 14.5H17.5ZM17.3268 15.8754C16.7162 18.2477 14.5621 20 12 20V21C15.0294 21 17.5737 18.928 18.2952 16.1246L17.3268 15.8754ZM18 15H19V14H18V15Z" fill="#2C3F58"/>
<circle cx="12" cy="14.5" r="3.5" stroke="#2C3F58"/>
</svg>
