<svg width="24" height="24" viewBox="0 0 24 24" fill="none" xmlns="http://www.w3.org/2000/svg">
<path d="M0.5 2.5V2C0.223858 2 0 2.22386 0 2.5H0.5ZM23.5 2.5H24C24 2.22386 23.7761 2 23.5 2V2.5ZM0.5 17.5H0C0 17.7761 0.223858 18 0.5 18L0.5 17.5ZM23.5 17.5V18C23.7761 18 24 17.7761 24 17.5H23.5ZM1.42929 20.505C1.15592 20.5441 0.965973 20.7973 1.00503 21.0707C1.04408 21.3441 1.29734 21.534 1.57071 21.495L1.42929 20.505ZM22.4293 21.495C22.7027 21.534 22.9559 21.3441 22.995 21.0707C23.034 20.7973 22.8441 20.5441 22.5707 20.505L22.4293 21.495ZM0.5 3H23.5V2H0.5V3ZM23 2.5V15.5H24V2.5H23ZM1 15.5V2.5H0V15.5H1ZM0 15.5V17.5H1V15.5H0ZM24 17.5V15.5H23V17.5H24ZM0.5 18H12V17H0.5V18ZM11.5 17.5V19.5H12.5V17.5H11.5ZM11.9293 19.005L1.42929 20.505L1.57071 21.495L12.0707 19.995L11.9293 19.005ZM11.9293 19.995L22.4293 21.495L22.5707 20.505L12.0707 19.005L11.9293 19.995ZM23.5 15H21.5V16H23.5V15ZM21.5 18H23.5V17H21.5V18ZM21 15.5V17.5H22V15.5H21ZM21.5 15H19.5V16H21.5V15ZM19.5 15H0.5V16H19.5V15ZM12 18H19.5V17H12V18ZM19.5 18H21.5V17H19.5V18ZM19 15.5V17.5H20V15.5H19Z" fill="#2C3F58"/>
</svg>
